<?xml version="1.0" encoding="UTF-8"?>
<svg width="15px" height="16px" viewBox="0 0 15 16" version="1.1" xmlns="http://www.w3.org/2000/svg" xmlns:xlink="http://www.w3.org/1999/xlink">
    <!-- Generator: Sketch 52.6 (67491) - http://www.bohemiancoding.com/sketch -->
    <title>add-secret</title>
    <desc>Created with Sketch.</desc>
    <g id="Page-1" stroke="none" stroke-width="1" fill="none" fill-rule="evenodd">
        <g id="Group-2" fill="#616161">
            <g id="Group-3" transform="translate(0.500000, 0.000000)">
                <path d="M12.375,10.1875 L14.5625,10.1875 L14.5625,12.375 L12.375,12.375 L12.375,14.5625 L10.1875,14.5625 L10.1875,12.375 L8,12.375 L8,10.1875 L10.1875,10.1875 L10.1875,8 L12.375,8 L12.375,10.1875 Z" id="Combined-Shape"></path>
                <path d="M7.5,11.25 L2.67728365,11.25 C1.20024364,11.2466189 0.00381454778,10.1861477 0,8.87695312 L0,6.35185547 C0.0016352654,5.75686308 0.545403221,5.27488694 1.21667668,5.2734375 L1.58653846,5.2734375 L1.58653846,2.98828125 C1.58653846,1.3359375 3.20282452,0 5.15625,0 C7.10967548,0 8.72596154,1.3359375 8.72596154,2.98828125 L8.72596154,5.2734375 L9.09582332,5.2734375 C9.76709678,5.27488694 10.3108647,5.75686308 10.3125,6.35185547 L10.3125,7.5625 L9.375,7.5625 L9.375,9.4375 L7.5,9.4375 L7.5,11.25 Z M5.79455111,8.80876224 C6.42832578,8.56359233 6.78120325,7.95802101 6.63992213,7.3580251 C6.49864102,6.75802918 5.90194001,6.328125 5.21043516,6.328125 C4.5189303,6.328125 3.92222929,6.75802918 3.78094818,7.3580251 C3.63966707,7.95802101 3.99254453,8.56359233 4.62631921,8.80876224 L4.62631921,9.82353095 C4.62631921,10.1094704 4.88783682,10.3412701 5.21043516,10.3412701 C5.53303349,10.3412701 5.79455111,10.1094704 5.79455111,9.82353095 L5.79455111,8.80876224 Z M2.77644231,3.1640625 L2.77644231,5.2734375 L7.53605769,5.2734375 L7.53605769,3.1640625 C7.53605769,1.99908686 6.4705815,1.0546875 5.15625,1.0546875 C3.8419185,1.0546875 2.77644231,1.99908686 2.77644231,3.1640625 Z" id="Combined-Shape" fill-rule="nonzero"></path>
            </g>
        </g>
    </g>
</svg>