<?xml version="1.0" ?>
<svg viewBox="0 0 128 128" xmlns="http://www.w3.org/2000/svg">
    <path d="M111.56,49.38a49.68,49.68,0,0,0-11.12-19.23L104,14.05A63.91,63.91,0,0,0,87.27,4.38L75.11,15.51a49.58,49.58,0,0,0-22.21,0L40.73,4.38A63.91,63.91,0,0,0,24,14.05l3.56,16.09A49.68,49.68,0,0,0,16.44,49.38l-15.71,5a64.59,64.59,0,0,0,0,19.32l15.71,5A49.69,49.69,0,0,0,27.56,97.86L24,113.95a63.91,63.91,0,0,0,16.73,9.67l12.16-11.13a49.58,49.58,0,0,0,22.21,0l12.16,11.13A63.9,63.9,0,0,0,104,113.95l-3.56-16.09a49.68,49.68,0,0,0,11.12-19.23l15.71-5a64.6,64.6,0,0,0,0-19.32ZM64,86.67A22.67,22.67,0,1,1,86.67,64,22.67,22.67,0,0,1,64,86.67Z"/>
</svg>