<?xml version="1.0" encoding="UTF-8"?>
<svg width="16px" height="16px" viewBox="0 0 16 16" version="1.1" xmlns="http://www.w3.org/2000/svg" xmlns:xlink="http://www.w3.org/1999/xlink">
    <!-- Generator: Sketch 61.2 (89653) - https://sketch.com -->
    <title>blog-post-secret</title>
    <desc>Created with Sketch.</desc>
    <g id="Page-1" stroke="none" stroke-width="1" fill="none" fill-rule="evenodd">
        <g id="pencil-gray" transform="translate(2.000000, 4.000000)">
            <path d="M0.654838474,5.984 L3.01483847,8.344 L3.00161158,8.3581965 L0.314681656,8.98556319 C0.180226855,9.01695681 0.0457801447,8.93340922 0.0143865224,8.79895442 C0.00565580327,8.76156189 0.00565579091,8.72266075 0.0143864863,8.68526821 L0.641816414,5.99805975 L0.654838474,5.984 Z M4.99100493,1.56922235 L7.42973318,4.00758299 L3.72883847,7.643 L1.35583847,5.27 L4.99100493,1.56922235 Z M6.24169397,0.319332938 C6.6678388,-0.106444313 7.35796071,-0.106444313 7.78410554,0.319332938 L7.78410554,0.319332938 L8.68039138,1.21561041 C9.10653621,1.64138766 9.10653621,2.33223034 8.68039138,2.75800759 L8.68039138,2.75800759 L7.94409166,3.49430044 L5.50539425,1.05562579 Z" id="Combined-Shape" fill="#616161"></path>
            <path d="M9.5,5.5 C8.46501458,5.5 7.61953353,6.34548105 7.61953353,7.38046647 L7.61953353,7.91982507 C7.27696793,7.91982507 7,8.196793 7,8.5393586 L7,10.9956268 C7,11.3381924 7.27696793,11.6151603 7.61953353,11.6151603 L11.3804665,11.6151603 C11.7230321,11.6151603 12,11.3381924 12,10.9956268 L12,8.5393586 C12,8.196793 11.7230321,7.91982507 11.3804665,7.91982507 L11.3804665,7.38046647 C11.3804665,6.34548105 10.5349854,5.5 9.5,5.5 Z M10.7244898,7.91982507 L8.2755102,7.91982507 L8.2755102,7.38046647 C8.2755102,6.70991254 8.82215743,6.15597668 9.5,6.15597668 C10.1778426,6.15597668 10.7244898,6.70991254 10.7244898,7.38046647 L10.7244898,7.91982507 Z" id="Shape" fill="#007400" fill-rule="nonzero"></path>
        </g>
    </g>
</svg>