<?xml version="1.0" encoding="UTF-8"?>
<svg width="16px" height="16px" viewBox="0 0 16 16" version="1.1" xmlns="http://www.w3.org/2000/svg" xmlns:xlink="http://www.w3.org/1999/xlink">
    <title>flash-cards-secret</title>
    <g id="Page-1" stroke="none" stroke-width="1" fill="none" fill-rule="evenodd">
        <g id="pencil-gray" transform="translate(9.000000, 9.000000)"></g>
        <g id="Group-23" transform="translate(0.000000, 1.000000)">
            <path d="M7,0 C7.55228475,-1.01453063e-16 8,0.44771525 8,1 L8,2 L3,2 C2.48716416,2 2.06449284,2.38604019 2.00672773,2.88337887 L2,3 L2,11 L1,11 C0.44771525,11 6.76353751e-17,10.5522847 0,10 L0,1 C-6.76353751e-17,0.44771525 0.44771525,1.01453063e-16 1,0 L7,0 Z" id="Combined-Shape" fill="#444444"></path>
            <path d="M10,3 C10.5522847,3 11,3.44771525 11,4 L11.0007092,7.47777431 C9.93000175,7.64252246 9.11896224,8.57709865 9.13839529,9.69041744 L9.13999814,9.56273146 C8.66377092,9.63931464 8.3,10.0521757 8.3,10.55 L8.3,10.55 L8.3,13.75 C8.3,13.8365684 8.31100006,13.9205677 8.33167867,14.0006762 L4,14 C3.44771525,14 3,13.5522847 3,13 L3,4 C3,3.44771525 3.44771525,3 4,3 L10,3 Z M7.95181205,4.98242575 L4.75106309,8.88346053 C4.69566953,8.95085584 4.68450887,9.04162924 4.72167873,9.12040088 C4.75895643,9.19917252 4.83625076,9.24813926 4.92344412,9.24813926 L6.44131596,9.24813926 L6.44847604,9.25740207 L5.85981842,11.5217767 C5.83286029,11.6256087 5.87898025,11.7280711 5.97460612,11.7767251 C6.00799106,11.7936764 6.04305819,11.8020011 6.07759694,11.8020011 C6.14183276,11.8020011 6.20385801,11.7733607 6.24818795,11.7194445 L9.44893691,7.81840971 C9.50433047,7.75100362 9.51549113,7.66023022 9.47832127,7.58146936 C9.44104357,7.50269772 9.36374924,7.45373098 9.27655588,7.45373098 L7.75868404,7.45373098 L7.75152396,7.44446817 L8.34018158,5.18009351 C8.36713971,5.07626159 8.32101975,4.97379915 8.22539388,4.92514513 C8.12988664,4.87670677 8.01994062,4.89955647 7.95181205,4.98242575 Z" id="Combined-Shape" fill="#616161"></path>
            <path d="M11.8,8.2 C10.7650146,8.2 9.91953353,9.04548105 9.91953353,10.0804665 L9.91953353,10.6198251 C9.57696793,10.6198251 9.3,10.896793 9.3,11.2393586 L9.3,13.6956268 C9.3,14.0381924 9.57696793,14.3151603 9.91953353,14.3151603 L13.6804665,14.3151603 C14.0230321,14.3151603 14.3,14.0381924 14.3,13.6956268 L14.3,11.2393586 C14.3,10.896793 14.0230321,10.6198251 13.6804665,10.6198251 L13.6804665,10.0804665 C13.6804665,9.04548105 12.8349854,8.2 11.8,8.2 Z M13.0244898,10.6198251 L10.5755102,10.6198251 L10.5755102,10.0804665 C10.5755102,9.40991254 11.1221574,8.85597668 11.8,8.85597668 C12.4778426,8.85597668 13.0244898,9.40991254 13.0244898,10.0804665 L13.0244898,10.6198251 Z" id="Shape" fill="#007400" fill-rule="nonzero"></path>
        </g>
    </g>
</svg>