<?xml version="1.0" encoding="UTF-8"?>
<svg width="16px" height="16px" viewBox="0 0 16 16" version="1.1" xmlns="http://www.w3.org/2000/svg" xmlns:xlink="http://www.w3.org/1999/xlink">
    <title>flash-cards</title>
    <g id="Page-1" stroke="none" stroke-width="1" fill="none" fill-rule="evenodd">
        <g id="Group-25" transform="translate(0.000000, 1.000000)">
            <path d="M7,0 C7.55228475,-1.01453063e-16 8,0.44771525 8,1 L8,2 L3,2 C2.48716416,2 2.06449284,2.38604019 2.00672773,2.88337887 L2,3 L2,11 L1,11 C0.44771525,11 6.76353751e-17,10.5522847 0,10 L0,1 C-6.76353751e-17,0.44771525 0.44771525,1.01453063e-16 1,0 L7,0 Z" id="Combined-Shape" fill="#444444"></path>
            <path d="M10,3 C10.5522847,3 11,3.44771525 11,4 L11,13 C11,13.5522847 10.5522847,14 10,14 L4,14 C3.44771525,14 3,13.5522847 3,13 L3,4 C3,3.44771525 3.44771525,3 4,3 L10,3 Z M7.95181205,4.98242575 L4.75106309,8.88346053 C4.69566953,8.95085584 4.68450887,9.04162924 4.72167873,9.12040088 C4.75895643,9.19917252 4.83625076,9.24813926 4.92344412,9.24813926 L6.44131596,9.24813926 L6.44847604,9.25740207 L5.85981842,11.5217767 C5.83286029,11.6256087 5.87898025,11.7280711 5.97460612,11.7767251 C6.00799106,11.7936764 6.04305819,11.8020011 6.07759694,11.8020011 C6.14183276,11.8020011 6.20385801,11.7733607 6.24818795,11.7194445 L9.44893691,7.81840971 C9.50433047,7.75100362 9.51549113,7.66023022 9.47832127,7.58146936 C9.44104357,7.50269772 9.36374924,7.45373098 9.27655588,7.45373098 L7.75868404,7.45373098 L7.75152396,7.44446817 L8.34018158,5.18009351 C8.36713971,5.07626159 8.32101975,4.97379915 8.22539388,4.92514513 C8.12988664,4.87670677 8.01994062,4.89955647 7.95181205,4.98242575 Z" id="Combined-Shape" fill="#616161"></path>
        </g>
    </g>
</svg>