<?xml version="1.0" ?>
<!DOCTYPE svg  PUBLIC '-//W3C//DTD SVG 1.1//EN'  'http://www.w3.org/Graphics/SVG/1.1/DTD/svg11.dtd'>
<svg height="60px" id="Layer_1" style="enable-background:new 0 0 60 60;" version="1.1" viewBox="0 0 60 60" width="60px" xml:space="preserve" xmlns="http://www.w3.org/2000/svg" xmlns:xlink="http://www.w3.org/1999/xlink">
    <g fill="#333333">
        <path d="M55,58H5c-1.6542969,0-3-1.3457031-3-3V5c0-1.6542969,1.3457031-3,3-3h50c1.6542969,0,3,1.3457031,3,3v50  C58,56.6542969,56.6542969,58,55,58z M5,4C4.4482422,4,4,4.4487305,4,5v50c0,0.5512695,0.4482422,1,1,1h50  c0.5517578,0,1-0.4487305,1-1V5c0-0.5512695-0.4482422-1-1-1H5z"/>
        <path d="M21,58c-0.5527344,0-1-0.4477539-1-1V3c0-0.5522461,0.4472656-1,1-1s1,0.4477539,1,1v54  C22,57.5522461,21.5527344,58,21,58z"/>
        <path d="M21,22H3c-0.5527344,0-1-0.4477539-1-1s0.4472656-1,1-1h18c0.5527344,0,1,0.4477539,1,1S21.5527344,22,21,22z"/>
        <path d="M21,40H3c-0.5527344,0-1-0.4477539-1-1s0.4472656-1,1-1h18c0.5527344,0,1,0.4477539,1,1S21.5527344,40,21,40z"/>
    </g>
</svg>