<?xml version="1.0" encoding="UTF-8"?>
<svg width="16px" height="16px" viewBox="0 0 16 16" version="1.1" xmlns="http://www.w3.org/2000/svg" xmlns:xlink="http://www.w3.org/1999/xlink">
    <!-- Generator: Sketch 61.2 (89653) - https://sketch.com -->
    <title>open-gist</title>
    <desc>Created with Sketch.</desc>
    <g id="Page-1" stroke="none" stroke-width="1" fill="none" fill-rule="evenodd">
        <path d="M12.8039216,6.41911765 C12.9264706,6.29656863 13,6.125 13,5.97794118 C13,5.80637255 12.9264706,5.65931373 12.8039216,5.53676471 L10.4509804,3.18382353 C10.2058824,2.93872549 9.78921569,2.93872549 9.54411765,3.18382353 C9.29901961,3.42892157 9.29901961,3.84558824 9.54411765,4.09068627 L10.7941176,5.34068627 L9.39705882,5.34068627 C5.86764706,5.34068627 3,8.20833333 3,11.7377451 C3,12.0808824 3.29411765,12.375 3.6372549,12.375 C3.98039216,12.375 4.2745098,12.0808824 4.2745098,11.7377451 C4.32352941,8.89460784 6.60294118,6.61519608 9.42156863,6.61519608 L10.8186275,6.61519608 L9.56862745,7.86519608 C9.32352941,8.11029412 9.32352941,8.52696078 9.56862745,8.77205882 C9.81372549,9.01715686 10.2303922,9.01715686 10.4754902,8.77205882 L12.8039216,6.41911765 Z" id="Path" fill="#616161" fill-rule="nonzero"></path>
    </g>
</svg>