<?xml version="1.0" ?><!DOCTYPE svg  PUBLIC '-//W3C//DTD SVG 1.1//EN'  'http://www.w3.org/Graphics/SVG/1.1/DTD/svg11.dtd'><svg height="62px" style="shape-rendering:geometricPrecision; text-rendering:geometricPrecision; image-rendering:optimizeQuality; fill-rule:evenodd; clip-rule:evenodd" version="1.1" viewBox="0 0 0.568 0.568" width="62px" xml:space="preserve" xmlns="http://www.w3.org/2000/svg" xmlns:xlink="http://www.w3.org/1999/xlink"><defs><style type="text/css">
   <![CDATA[
    .fil0 {fill:none}
    .fil1 {fill:#333333;fill-rule:nonzero}
   ]]>
  </style></defs><g id="Layer_x0020_1"><g id="_2340587733504"><rect class="fil0" height="0.568" width="0.568"/><path class="fil1" d="M0.293 0.472c0.044,-0.023 0.088,-0.035 0.132,-0.035 0.043,0 0.085,0.012 0.125,0.035l0 -0.346c-0.04,-0.025 -0.082,-0.037 -0.125,-0.037 -0.044,0 -0.088,0.013 -0.132,0.038l0 0.345zm0.062 -0.064c-0.005,0.001 -0.01,-0.002 -0.011,-0.006 -0.001,-0.005 0.001,-0.01 0.006,-0.012 0.023,-0.007 0.047,-0.01 0.071,-0.009 0.024,0 0.048,0.004 0.072,0.011 0.005,0.001 0.007,0.006 0.006,0.011 -0.001,0.005 -0.007,0.008 -0.011,0.006 -0.023,-0.006 -0.045,-0.01 -0.067,-0.01 -0.022,0 -0.044,0.002 -0.066,0.009zm0 -0.064c-0.005,0.002 -0.01,-0.001 -0.011,-0.006 -0.001,-0.005 0.001,-0.01 0.006,-0.011 0.023,-0.007 0.047,-0.01 0.071,-0.01 0.024,0.001 0.048,0.004 0.072,0.012 0.005,0.001 0.007,0.006 0.006,0.011 -0.001,0.005 -0.007,0.008 -0.011,0.006 -0.023,-0.007 -0.045,-0.01 -0.067,-0.01 -0.022,-0.001 -0.044,0.002 -0.066,0.008zm0 -0.063c-0.005,0.002 -0.01,-0.001 -0.011,-0.006 -0.001,-0.005 0.001,-0.01 0.006,-0.011 0.023,-0.007 0.047,-0.01 0.071,-0.01 0.024,0 0.048,0.004 0.072,0.011 0.005,0.002 0.007,0.007 0.006,0.012 -0.001,0.005 -0.007,0.007 -0.011,0.006 -0.023,-0.007 -0.045,-0.011 -0.067,-0.011 -0.022,0 -0.044,0.003 -0.066,0.009zm0 -0.063c-0.005,0.001 -0.01,-0.001 -0.011,-0.006 -0.001,-0.005 0.001,-0.01 0.006,-0.012 0.023,-0.006 0.047,-0.01 0.071,-0.009 0.024,0 0.048,0.004 0.072,0.011 0.005,0.001 0.007,0.007 0.006,0.011 -0.001,0.005 -0.007,0.008 -0.011,0.007 -0.023,-0.007 -0.045,-0.011 -0.067,-0.011 -0.022,0 -0.044,0.003 -0.066,0.009zm0 -0.063c-0.005,0.001 -0.01,-0.002 -0.011,-0.007 -0.001,-0.004 0.001,-0.01 0.006,-0.011 0.023,-0.007 0.047,-0.01 0.071,-0.01 0.024,0.001 0.048,0.004 0.072,0.012 0.005,0.001 0.007,0.006 0.006,0.011 -0.001,0.005 -0.007,0.008 -0.011,0.006 -0.023,-0.007 -0.045,-0.01 -0.067,-0.01 -0.022,-0.001 -0.044,0.002 -0.066,0.009zm-0.275 0.253c-0.004,0.001 -0.009,-0.002 -0.011,-0.006 -0.001,-0.005 0.001,-0.01 0.006,-0.012 0.023,-0.007 0.047,-0.01 0.071,-0.009 0.024,0 0.048,0.004 0.072,0.011 0.005,0.001 0.008,0.006 0.006,0.011 -0.001,0.005 -0.006,0.008 -0.011,0.006 -0.023,-0.006 -0.045,-0.01 -0.067,-0.01 -0.022,0 -0.044,0.002 -0.066,0.009zm0 -0.064c-0.004,0.002 -0.009,-0.001 -0.011,-0.006 -0.001,-0.005 0.001,-0.01 0.006,-0.011 0.023,-0.007 0.047,-0.01 0.071,-0.01 0.024,0.001 0.048,0.004 0.072,0.012 0.005,0.001 0.008,0.006 0.006,0.011 -0.001,0.005 -0.006,0.008 -0.011,0.006 -0.023,-0.007 -0.045,-0.01 -0.067,-0.01 -0.022,-0.001 -0.044,0.002 -0.066,0.008zm0 -0.063c-0.004,0.002 -0.009,-0.001 -0.011,-0.006 -0.001,-0.005 0.001,-0.01 0.006,-0.011 0.023,-0.007 0.047,-0.01 0.071,-0.01 0.024,0 0.048,0.004 0.072,0.011 0.005,0.002 0.008,0.007 0.006,0.012 -0.001,0.005 -0.006,0.007 -0.011,0.006 -0.023,-0.007 -0.045,-0.011 -0.067,-0.011 -0.022,0 -0.044,0.003 -0.066,0.009zm0 -0.063c-0.004,0.001 -0.009,-0.001 -0.011,-0.006 -0.001,-0.005 0.001,-0.01 0.006,-0.012 0.023,-0.006 0.047,-0.01 0.071,-0.009 0.024,0 0.048,0.004 0.072,0.011 0.005,0.001 0.008,0.007 0.006,0.011 -0.001,0.005 -0.006,0.008 -0.011,0.007 -0.023,-0.007 -0.045,-0.011 -0.067,-0.011 -0.022,0 -0.044,0.003 -0.066,0.009zm0 -0.063c-0.004,0.001 -0.009,-0.002 -0.011,-0.007 -0.001,-0.004 0.001,-0.01 0.006,-0.011 0.023,-0.007 0.047,-0.01 0.071,-0.01 0.024,0.001 0.048,0.004 0.072,0.012 0.005,0.001 0.008,0.006 0.006,0.011 -0.001,0.005 -0.006,0.008 -0.011,0.006 -0.023,-0.007 -0.045,-0.01 -0.067,-0.01 -0.022,-0.001 -0.044,0.002 -0.066,0.009zm0.199 0.34l0 0c-0.045,-0.026 -0.091,-0.039 -0.136,-0.039 -0.044,0 -0.088,0.013 -0.129,0.04 -0.004,0.002 -0.01,0.001 -0.012,-0.003 -0.001,-0.002 -0.002,-0.003 -0.002,-0.005l0 0 0 -0.366c0,-0.004 0.002,-0.007 0.005,-0.009 0.044,-0.028 0.09,-0.042 0.138,-0.042 0.047,0 0.095,0.013 0.141,0.04 0.046,-0.027 0.094,-0.04 0.141,-0.04 0.048,0 0.094,0.014 0.138,0.042 0.003,0.002 0.005,0.005 0.005,0.009l0 0.366 0 0c0,0.002 0,0.003 -0.001,0.005 -0.003,0.004 -0.009,0.005 -0.013,0.003 -0.041,-0.027 -0.085,-0.04 -0.129,-0.04 -0.045,0 -0.091,0.013 -0.136,0.039l0 0 0 0 0 0.001 0 0 0 0 0 0 0 0 0 0 0 0 0 0 0 0 0 0 0 0 0 0 0 0 0 0 0 0 -0.001 0 0 0 0 0 0 0 0 0 0 0 0 0 0 0 0 0 0 0 0 0 0 0 0 0 0 0 0 0 0 0 0 0 -0.001 0.001 0 0 0 0 0 0 0 0 0 0 0 0 0 0 0 0 0 0 0 0 0 0 0 0 0 0 0 0 0 0 0 0 -0.001 0 0 0 0 0 0 0 0 0 0 0 0 0 0 0 0 0 0 0 0 0 0 0 0 0 0 0 -0.001 0 0 0 0 0 0 0 0 0 0 0 0 0 0 0 0 0 0 0 0 0 0 0 0 0 0 0 0 0 0 0 -0.001 0 0 0 0 0 0 0 0 0 0 0 0 0 0 0 0 0 0 0 0 0 0 0 0 0 0 0 -0.001 0 0 0 0 0 0 0 0 0 0 0 0 0 0 0 0 0 0 0 0 0 0 0 0 0 0 0 0 0 -0.001 0 0 0 0 0 0 0 0 0 0 0 0 0 0 0 0 0 0 0 0 0 0 0 0 0 0 0 0 0 0 0 -0.001 0 0 0 0 0 0 0 0 0 0 0 0 0 0 0 0 0 0 0 0 0 0 0 0 0 0 0 0 0 0 -0.001 -0.001 0 0 0 0 0 0 0 0 0 0 0 0 0 0 0 0 0 0 0 0 0 0 0 0 0 0 0 0 0 0 0 0 0 -0.001 0 0 0 0 0 0 0 0 0 0 0 0 0 0 0 0 0 0 0 0 0 0 0 0 0 0 0 0 -0.001 0 0zm-0.136 -0.058c0.044,0 0.088,0.012 0.132,0.035l0 -0.345c-0.044,-0.025 -0.088,-0.038 -0.132,-0.038 -0.043,0 -0.085,0.012 -0.125,0.037l0 0.346c0.04,-0.023 0.082,-0.035 0.125,-0.035z"/></g></g></svg>