<?xml version="1.0" encoding="UTF-8"?>
<svg width="16px" height="16px" viewBox="0 0 16 16" version="1.1" xmlns="http://www.w3.org/2000/svg" xmlns:xlink="http://www.w3.org/1999/xlink">
    <!-- Generator: Sketch 61.2 (89653) - https://sketch.com -->
    <title>playground-template-secret</title>
    <desc>Created with Sketch.</desc>
    <g id="Page-1" stroke="none" stroke-width="1" fill="none" fill-rule="evenodd">
        <g id="playground-icon-gray" transform="translate(2.000000, 4.000000)">
            <g id="playground-icon">
                <g id="Group-3">
                    <rect id="Rectangle" fill="#959595" opacity="0.653622582" x="0" y="0" width="4" height="4" rx="2"></rect>
                    <rect id="Rectangle" fill="#959595" opacity="0.653622582" x="0" y="6" width="4" height="4" rx="2"></rect>
                    <rect id="Rectangle" fill="#FFFFFF" opacity="0" x="6" y="5" width="4" height="4" rx="2"></rect>
                    <rect id="Rectangle" fill="#959595" opacity="0.653622582" x="6" y="0" width="4" height="4" rx="2"></rect>
                </g>
            </g>
            <g id="Group-3" transform="translate(6.000000, 5.500000)" fill="#007400" fill-rule="nonzero">
                <path d="M2.5,0 C1.46501458,0 0.619533528,0.84548105 0.619533528,1.88046647 L0.619533528,2.41982507 C0.27696793,2.41982507 0,2.696793 0,3.0393586 L0,5.49562682 C0,5.83819242 0.27696793,6.11516035 0.619533528,6.11516035 L4.38046647,6.11516035 C4.72303207,6.11516035 5,5.83819242 5,5.49562682 L5,3.0393586 C5,2.696793 4.72303207,2.41982507 4.38046647,2.41982507 L4.38046647,1.88046647 C4.38046647,0.84548105 3.53498542,0 2.5,0 Z M3.7244898,2.41982507 L1.2755102,2.41982507 L1.2755102,1.88046647 C1.2755102,1.20991254 1.82215743,0.655976676 2.5,0.655976676 C3.17784257,0.655976676 3.7244898,1.20991254 3.7244898,1.88046647 L3.7244898,2.41982507 Z" id="Shape"></path>
            </g>
        </g>
    </g>
</svg>