<?xml version="1.0" encoding="UTF-8"?>
<svg width="16px" height="16px" viewBox="0 0 16 16" version="1.1" xmlns="http://www.w3.org/2000/svg" xmlns:xlink="http://www.w3.org/1999/xlink">
    <!-- Generator: Sketch 61.2 (89653) - https://sketch.com -->
    <title>playground-secret</title>
    <desc>Created with Sketch.</desc>
    <g id="Page-1" stroke="none" stroke-width="1" fill="none" fill-rule="evenodd">
        <g id="playground-icon-gray" transform="translate(2.000000, 4.000000)">
            <g id="playground-icon">
                <g id="Group-3">
                    <rect id="Rectangle" fill="#939393" x="0" y="0" width="4" height="4" rx="2"></rect>
                    <rect id="Rectangle" fill="#767676" x="0" y="6" width="4" height="4" rx="2"></rect>
                    <rect id="Rectangle" fill="#FFFFFF" opacity="0" x="6" y="5" width="4" height="4" rx="2"></rect>
                    <rect id="Rectangle" fill="#767676" x="6" y="0" width="4" height="4" rx="2"></rect>
                </g>
            </g>
            <g id="Group-3" transform="translate(6.000000, 4.500000)" fill="#007400" fill-rule="nonzero">
                <path d="M2.5,0.5 C1.46501458,0.5 0.619533528,1.34548105 0.619533528,2.38046647 L0.619533528,2.91982507 C0.27696793,2.91982507 0,3.196793 0,3.5393586 L0,5.99562682 C0,6.33819242 0.27696793,6.61516035 0.619533528,6.61516035 L4.38046647,6.61516035 C4.72303207,6.61516035 5,6.33819242 5,5.99562682 L5,3.5393586 C5,3.196793 4.72303207,2.91982507 4.38046647,2.91982507 L4.38046647,2.38046647 C4.38046647,1.34548105 3.53498542,0.5 2.5,0.5 Z M3.7244898,2.91982507 L1.2755102,2.91982507 L1.2755102,2.38046647 C1.2755102,1.70991254 1.82215743,1.15597668 2.5,1.15597668 C3.17784257,1.15597668 3.7244898,1.70991254 3.7244898,2.38046647 L3.7244898,2.91982507 Z" id="Shape"></path>
            </g>
        </g>
    </g>
</svg>