<?xml version="1.0" encoding="UTF-8"?>
<svg width="17px" height="16px" viewBox="0 0 17 16" version="1.1" xmlns="http://www.w3.org/2000/svg" xmlns:xlink="http://www.w3.org/1999/xlink">
    <!-- Generator: Sketch 52.6 (67491) - http://www.bohemiancoding.com/sketch -->
    <title>refresh</title>
    <desc>Created with Sketch.</desc>
    <g id="Page-1" stroke="none" stroke-width="1" fill="none" fill-rule="evenodd">
        <path d="M12.683,5.696 L12.589,5.767 C12.32,6.1 11.843,6.863 11.679,8.142 C11.736,8.419 11.771,8.637 11.771,8.687 C11.771,10.893 9.977,12.687 7.771,12.687 C6.673,12.687 5.678,12.242 4.954,11.523 C4.236,10.799 3.791,9.805 3.791,8.708 C3.791,6.502 5.585,4.708 7.791,4.708 L8.142,4.733 L8.142,6.583 C8.142,6.583 9.768,5.241 9.773,5.244 L11.642,3.667 L8.142,0.75 L8.142,2.968 L7.771,2.938 C4.595,2.938 2.021,5.512 2.021,8.688 C2.021,10.281 2.669,11.722 3.716,12.764 C4.758,13.81 6.198,14.458 7.792,14.458 C10.968,14.458 13.542,11.884 13.542,8.708 C13.541,7.602 13.224,6.573 12.683,5.696 Z" id="Path" fill="#616161"></path>
    </g>
</svg>