<?xml version="1.0" ?>
<!DOCTYPE svg  PUBLIC '-//W3C//DTD SVG 1.1//EN'  'http://www.w3.org/Graphics/SVG/1.1/DTD/svg11.dtd'>
<svg height="512px" style="enable-background:new 0 0 512 512;" version="1.1" viewBox="0 0 512 512" width="512px" xml:space="preserve" xmlns="http://www.w3.org/2000/svg" xmlns:xlink="http://www.w3.org/1999/xlink">
    <path d="M421,189.088c0,15.84-12.33,28.94-28.13,29.89h-41.04l-0.01,72.08l37.42,0.01    c0.62-0.039,1.229-0.061,1.84-0.061c16.4,0,29.92,13.32,29.92,29.951c0,15.84-12.33,28.93-28.13,29.889l-41.07-0.01v37.4    c0.04,0.621,0.061,1.23,0.061,1.84c0,16.4-13.32,29.92-29.95,29.92c-15.84,0-28.94-12.33-29.891-28.129v-41.041l-72.08-0.01    l-0.01,37.42c0.04,0.621,0.06,1.23,0.06,1.84c0,16.4-13.32,29.92-29.95,29.92c-15.84,0-28.93-12.33-29.89-28.129l0.01-41.07h-37.4    c-0.62,0.039-1.23,0.061-1.84,0.061c-16.4,0-29.92-13.32-29.92-29.951c0-15.84,12.33-28.939,28.13-29.891h41.04l0.01-72.079    l-37.42-0.01c-0.62,0.04-1.23,0.06-1.84,0.06c-16.4,0-29.92-13.32-29.92-29.95c0-15.84,12.33-28.93,28.13-29.89l41.07,0.01v-37.4    c-0.04-0.62-0.06-1.23-0.06-1.84c0-16.4,13.32-29.92,29.95-29.92c15.84,0,28.94,12.33,29.89,28.13v41.04l72.08,0.01l0.011-37.42    c-0.04-0.62-0.061-1.23-0.061-1.84c0-16.4,13.32-29.92,29.95-29.92c15.84,0,28.93,12.33,29.89,28.13l-0.01,41.07h37.4    c0.62-0.04,1.229-0.06,1.84-0.06C407.48,159.139,421,172.458,421,189.088z M292.04,291.049l0.01-72.09l-72.09-0.01l-0.01,72.09    L292.04,291.049z" style="fill:#767676;"/>
</svg>