<?xml version="1.0" encoding="UTF-8"?>
<svg width="16px" height="16px" viewBox="0 0 16 16" version="1.1" xmlns="http://www.w3.org/2000/svg" xmlns:xlink="http://www.w3.org/1999/xlink">
    <!-- Generator: Sketch 62 (91390) - https://sketch.com -->
    <title>hat-secret</title>
    <desc>Created with Sketch.</desc>
    <g id="Page-1" stroke="none" stroke-width="1" fill="none" fill-rule="evenodd">
        <g id="pencil-gray" transform="translate(9.000000, 9.000000)"></g>
        <g id="Group-7" transform="translate(1.000000, 4.000000)">
            <path d="M7.9831899,8.48049359 C7.98393743,8.48688529 7.98435821,8.49331098 7.98446849,8.49974559 C7.98762863,8.85169215 7.56707875,9.27455331 6.8885573,9.60236264 C6.33883779,9.8680035 5.39010543,10.1846503 3.99224723,10.1846503 C2.59438903,10.1846503 1.64565667,9.8680035 1.09593716,9.60236264 C0.417415707,9.27452705 -0.00313416812,8.85161335 -2.27373675e-13,8.49974559 C0.000109980069,8.49331098 0.000530762248,8.48688529 0.00127829622,8.48049359 L0.291555414,5.86736917 C0.298040581,5.80898835 0.332031385,5.7572207 0.383023921,5.72806357 C0.434016457,5.69890643 0.495871492,5.69587017 0.549474461,5.71989306 L3.64846898,7.10905765 C3.86720971,7.20695328 4.11731102,7.20695328 4.33605174,7.10905765 L7.43491494,5.71991932 C7.48851791,5.69589643 7.55037294,5.69893269 7.60136548,5.72808983 C7.65235802,5.75724697 7.68634882,5.80901462 7.69283399,5.86739544 L7.9831899,8.48049359 Z" id="Path"></path>
            <path d="M2.55797649,5.01607852 L5.65697101,6.40524311 C5.87571173,6.50313874 6.12581304,6.50313874 6.34455377,6.40524311 L8.79411476,5.30691945 C8.30547576,5.85447906 8,6.63443092 8,7.5 C8,7.59443387 8.00363604,7.68784866 8.01074929,7.78005374 C7.57488528,7.88495145 7.25,8.27953521 7.25,8.75 L7.25,8.75 L7.25136685,9.0551907 C6.8705888,9.15259772 6.45210434,9.21339501 6.00074926,9.21339501 C3.73645781,9.21339501 2.29690568,8.02879791 2.3,7.67693015 L2.3,5.16355464 L2.3,5.16355464 C2.30654261,5.10517382 2.34053341,5.05340617 2.39152595,5.02424903 C2.44251848,4.99509189 2.50437352,4.99205563 2.55797649,5.01607852 Z" id="Combined-Shape" fill="#616161" fill-rule="nonzero"></path>
            <path d="M9.50109845,5.00086081 L9.41927578,5.04402645 C8.73402713,5.4388378 8.2219279,6.19742936 8.05679195,7.11122451 L8.05679195,7.11122451 L6.34377824,7.93187944 L6.23208487,7.97266928 C6.04254154,8.02705574 5.83847942,8.01345913 5.65619548,7.93187944 L5.65619548,7.93187944 L2.29999999,6.32589286 L2.29999999,5.16355464 L2.29999999,5.16355464 C2.3065426,5.10517382 2.3405334,5.05340617 2.39152594,5.02424903 C2.44251848,4.99509189 2.50437351,4.99205563 2.55797648,5.01607852 L5.656971,6.40524311 C5.87571173,6.50313874 6.12581303,6.50313874 6.34455376,6.40524311 L9.44341696,5.01610479 C9.46192274,5.00781117 9.48141209,5.00274272 9.50109845,5.00086081 Z" id="Combined-Shape" fill="#444444" fill-rule="nonzero"></path>
            <path d="M8.35160981,1.07343679 C8.13287338,0.975521071 7.88276349,0.975521071 7.66402705,1.07343679 L2.25613177,3.49766571 C2.10503837,3.56540136 2.0078053,3.71554806 2.0078053,3.88112987 C2.0078053,4.04671167 2.10503837,4.19685837 2.25613177,4.26459403 L7.66402705,6.68882295 C7.88276778,6.78671858 8.13286909,6.78671858 8.35160981,6.68882295 L13.3392441,4.4529905 L13.3392441,6.02556127 C13.2092608,6.10048202 13.1291536,6.23908754 13.1291268,6.38911681 L13.1291268,9.12064236 L13.9695962,9.12064236 L13.9695962,6.38911681 C13.9695694,6.23908754 13.8894622,6.10048202 13.7594788,6.02556127 L13.7594788,4.26459403 C13.9105722,4.19685837 14.0078053,4.04671167 14.0078053,3.88112987 C14.0078053,3.71554806 13.9105722,3.56540136 13.7594788,3.49766571 L8.35160981,1.07343679 Z" id="Path"></path>
            <path d="M6.34380451,0.0734367871 C6.12506808,-0.024478929 5.87495819,-0.024478929 5.65622175,0.0734367871 L0.248326473,2.49766571 C0.0972330744,2.56540136 0,2.71554806 0,2.88112987 C0,3.04671167 0.0972330744,3.19685837 0.248326473,3.26459403 L5.65622175,5.68882295 C5.87496248,5.78671858 6.12506379,5.78671858 6.34380451,5.68882295 L11.2040701,3.54630796 L11.2040701,5.00289951 C11.0740867,5.07782026 10.8112667,5.23908754 10.8112399,5.38911681 L10.8112399,7.54536688 C10.8112399,7.86308275 11.0687995,8.12064236 11.3865154,8.12064236 C11.7042313,8.12064236 11.9617909,7.86308275 11.9617909,7.54536688 L11.9617909,5.38911681 L11.9617909,5.38911681 C11.9617641,5.23908754 11.6168785,5.10048202 11.4868952,5.02556127 L11.4868952,3.39012097 C11.6379886,3.32238531 12,3.04671167 12,2.88112987 C12,2.71554806 11.9027669,2.56540136 11.7516735,2.49766571 L6.34380451,0.0734367871 Z" id="Shape" fill="#616161" fill-rule="nonzero" transform="translate(6.000000, 4.060321) scale(-1, 1) translate(-6.000000, -4.060321) "></path>
            <path d="M10.5,5.5 C9.46501458,5.5 8.61953353,6.34548105 8.61953353,7.38046647 L8.61953353,7.91982507 C8.27696793,7.91982507 8,8.196793 8,8.5393586 L8,10.9956268 C8,11.3381924 8.27696793,11.6151603 8.61953353,11.6151603 L12.3804665,11.6151603 C12.7230321,11.6151603 13,11.3381924 13,10.9956268 L13,8.5393586 C13,8.196793 12.7230321,7.91982507 12.3804665,7.91982507 L12.3804665,7.38046647 C12.3804665,6.34548105 11.5349854,5.5 10.5,5.5 Z M11.7244898,7.91982507 L9.2755102,7.91982507 L9.2755102,7.38046647 C9.2755102,6.70991254 9.82215743,6.15597668 10.5,6.15597668 C11.1778426,6.15597668 11.7244898,6.70991254 11.7244898,7.38046647 L11.7244898,7.91982507 Z" id="Shape" fill="#78E762" fill-rule="nonzero"></path>
        </g>
    </g>
</svg>