<?xml version="1.0" encoding="UTF-8"?>
<svg width="12px" height="12px" viewBox="0 0 12 12" version="1.1" xmlns="http://www.w3.org/2000/svg" xmlns:xlink="http://www.w3.org/1999/xlink">
    <!-- Generator: Sketch 61.2 (89653) - https://sketch.com -->
    <title>M</title>
    <desc>Created with Sketch.</desc>
    <g id="Page-1" stroke="none" stroke-width="1" fill="none" fill-rule="evenodd">
        <path d="M6.41699219,10.1191406 C6.95084635,10.1191406 7.40169271,10.0019531 7.76953125,9.76757812 C8.140625,9.54947917 8.43033854,9.27278646 8.63867188,8.9375 C8.71679688,8.81054688 8.78352865,8.68847656 8.83886719,8.57128906 C8.89095052,8.45084635 8.93001302,8.3141276 8.95605469,8.16113281 C9.01139323,7.85839844 9.0390625,7.32454427 9.0390625,6.55957031 C9.0390625,5.84016927 9.02115885,5.33398438 8.98535156,5.04101562 C8.93977865,4.74804688 8.83072917,4.46809896 8.65820312,4.20117188 C8.17643229,3.40690104 7.45377604,3.00651042 6.49023438,3 L4,3 L4,10.1191406 L6.41699219,10.1191406 Z M6.36816406,9.09863281 L5.07910156,9.09863281 L5.07910156,4.02050781 L6.36816406,4.02050781 C6.91503906,4.00748698 7.33821615,4.20768229 7.63769531,4.62109375 C7.78417969,4.78710938 7.87695312,5.00358073 7.91601562,5.27050781 C7.94165039,5.50406901 7.95606995,5.87221273 7.95927429,6.37493896 L7.95996094,6.59863281 C7.95996094,7.23339844 7.9453125,7.66634115 7.91601562,7.89746094 C7.88346354,8.13183594 7.80696615,8.32552083 7.68652344,8.47851562 C7.41308594,8.89192708 6.97363281,9.09863281 6.36816406,9.09863281 Z" id="D" fill="#A34646" fill-rule="nonzero"></path>
    </g>
</svg>