<?xml version="1.0" ?><!DOCTYPE svg  PUBLIC '-//W3C//DTD SVG 1.1//EN'  'http://www.w3.org/Graphics/SVG/1.1/DTD/svg11.dtd'><svg enable-background="new 0 0 128 128" id="Layer_1" version="1.1" viewBox="0 0 128 128" xml:space="preserve" xmlns="http://www.w3.org/2000/svg" xmlns:xlink="http://www.w3.org/1999/xlink"><g><g><path d="M103.3,125h-85c-3.7,0-6.8-3-6.8-6.8V9.8c0-3.7,3-6.8,6.8-6.8h85c3.7,0,6.8,3,6.8,6.8v108.4    C110.1,122,107.1,125,103.3,125z" fill="#EEEDED"/></g><g><path d="M34.3,3h-16c-3.7,0-6.8,3-6.8,6.8v108.4c0,3.7,3,6.8,6.8,6.8h16V3z" fill="#74C9F1"/></g><g opacity="0.1"><path d="M13.5,14v-1.2c0-2.6,2.1-4.8,4.8-4.8h85c2.6,0,4.8,2.1,4.8,4.8V14h4v-1.2c0-4.8-3.9-8.8-8.8-8.8h-85    c-4.8,0-8.8,3.9-8.8,8.8V14H13.5z" fill="#171C1F"/></g><g><path d="M103.3,127h-85c-4.8,0-8.8-3.9-8.8-8.8V9.8C9.5,5,13.4,1,18.3,1h85c4.8,0,8.8,3.9,8.8,8.8v108.4    C112.1,123.1,108.2,127,103.3,127z M18.3,5c-2.6,0-4.8,2.1-4.8,4.8v108.4c0,2.6,2.1,4.8,4.8,4.8h85c2.6,0,4.8-2.1,4.8-4.8V9.8    c0-2.6-2.1-4.8-4.8-4.8H18.3z" fill="#171C1F"/></g><g><path d="M121.1,36.8h-11V16.9h11c2.2,0,3.9,1.8,3.9,3.9v12C125,35,123.2,36.8,121.1,36.8z" fill="#5EBE89"/></g><g><path d="M121.1,56.7h-11V36.8h11c2.2,0,3.9,1.8,3.9,3.9v12C125,54.9,123.2,56.7,121.1,56.7z" fill="#74C9F1"/></g><g><path d="M121.1,76.5h-11V56.7h11c2.2,0,3.9,1.8,3.9,3.9v12C125,74.8,123.2,76.5,121.1,76.5z" fill="#EEEDED"/></g><g><path d="M121.1,96.4h-11V76.5h11c2.2,0,3.9,1.8,3.9,3.9v12C125,94.7,123.2,96.4,121.1,96.4z" fill="#485762"/></g><g opacity="0.1"><path d="M124.8,86.3V75.9H123c-0.1,0.9-0.9,1.7-1.9,1.7h-9v-1.7h-4v10.4h4v-4.7h9c1.1,0,1.9,0.9,1.9,1.9v2.8    C123,86.3,124.8,86.3,124.8,86.3z" fill="#171C1F"/></g><g opacity="0.1"><path d="M124.8,66V55.9H123c-0.1,1-0.9,1.8-1.9,1.8h-9v-1.8h-4V66h4v-4.3h9c1.1,0,1.9,0.9,1.9,1.9V66H124.8z" fill="#171C1F"/></g><g opacity="0.1"><path d="M124.8,25v-5.8c-1-0.8-2.3-1.3-3.7-1.3h-11c-1.1,0-2,0.9-2,2V25h4v-3.1h9c1.1,0,1.9,0.9,1.9,1.9V25H124.8z    " fill="#171C1F"/></g><g opacity="0.1"><path d="M124.8,44.4v-7.8h-1.9c-0.3,0.7-1,1.2-1.8,1.2h-9v-1.2h-4v7.8h4v-2.6h9c1.1,0,1.9,0.9,1.9,1.9v0.6    L124.8,44.4L124.8,44.4z" fill="#171C1F"/></g><g><path d="M127,20.8c0-3.3-2.7-5.9-5.9-5.9h-11c-1.1,0-2,0.9-2,2v19.9v19.9v19.9v19.9c0,1.1,0.9,2,2,2h11    c3.3,0,5.9-2.7,5.9-5.9v-12c0-1.5-0.6-2.9-1.5-3.9c0.9-1,1.5-2.4,1.5-3.9v-12c0-1.5-0.6-2.9-1.5-3.9c0.9-1,1.5-2.4,1.5-3.9V41    c0-1.5-0.6-2.9-1.5-3.9c0.9-1,1.5-2.4,1.5-3.9V20.8z M112.1,18.9h9c1.1,0,1.9,0.9,1.9,1.9v12c0,1.1-0.9,1.9-1.9,1.9h-9V18.9z     M123,40.7v12c0,1.1-0.9,1.9-1.9,1.9h-9V38.8h9C122.1,38.8,123,39.7,123,40.7z M123,60.6v12c0,1.1-0.9,1.9-1.9,1.9h-9V58.7h9    C122.1,58.7,123,59.5,123,60.6z M123,92.5c0,1.1-0.9,1.9-1.9,1.9h-9V78.5h9c1.1,0,1.9,0.9,1.9,1.9V92.5z" fill="#171C1F"/></g><g><path d="M96.7,93.9H47.2c-2,0-3.6-1.6-3.6-3.6V18.9c0-2,1.6-3.6,3.6-3.6h49.4c2,0,3.6,1.6,3.6,3.6v71.3    C100.2,92.3,98.6,93.9,96.7,93.9z" fill="#F27475"/></g><g opacity="0.1"><g><path d="M49.8,25.4H94c0.6,0,1-0.4,1-1s-0.4-1-1-1H49.8c-0.6,0-1,0.4-1,1S49.3,25.4,49.8,25.4z" fill="#171C1F"/></g><g><path d="M94,30.9H49.8c-0.6,0-1,0.4-1,1s0.4,1,1,1H94c0.6,0,1-0.4,1-1C95,31.4,94.6,30.9,94,30.9z" fill="#171C1F"/></g><g><path d="M94,38.5H49.8c-0.6,0-1,0.4-1,1s0.4,1,1,1H94c0.6,0,1-0.4,1-1S94.6,38.5,94,38.5z" fill="#171C1F"/></g><g><path d="M94,46.1H49.8c-0.6,0-1,0.4-1,1s0.4,1,1,1H94c0.6,0,1-0.4,1-1S94.6,46.1,94,46.1z" fill="#171C1F"/></g><g><path d="M94,53.6H49.8c-0.6,0-1,0.4-1,1s0.4,1,1,1H94c0.6,0,1-0.4,1-1S94.6,53.6,94,53.6z" fill="#171C1F"/></g><g><path d="M94,61.2H49.8c-0.6,0-1,0.4-1,1s0.4,1,1,1H94c0.6,0,1-0.4,1-1S94.6,61.2,94,61.2z" fill="#171C1F"/></g><g><path d="M94,68.7H49.8c-0.6,0-1,0.4-1,1s0.4,1,1,1H94c0.6,0,1-0.4,1-1S94.6,68.7,94,68.7z" fill="#171C1F"/></g><g><path d="M94,76.3H49.8c-0.6,0-1,0.4-1,1s0.4,1,1,1H94c0.6,0,1-0.4,1-1S94.6,76.3,94,76.3z" fill="#171C1F"/></g><g><path d="M94,83.8H49.8c-0.6,0-1,0.4-1,1s0.4,1,1,1H94c0.6,0,1-0.4,1-1S94.6,83.8,94,83.8z" fill="#171C1F"/></g></g><g><g><g><path d="M23,20.9c0-0.5-0.8-1.4-2.5-2.2c-0.3,0.6-0.4,1.3-0.4,2c0,0.9,0.2,1.6,0.6,2.3      C22.2,22.2,23,21.4,23,20.9z" fill="#FFFFFF"/></g><g><path d="M24.8,16c-0.2,0-0.5,0-0.7,0.1c2.5,1.7,3,3.7,3,4.8c0,1.8-0.9,3.2-2.4,4.4h0.1c2.6,0,4.6-2.1,4.6-4.6      S27.3,16,24.8,16z" fill="#FFFFFF"/></g><g><path d="M24.1,16.1c-1.6,0.2-2.8,1.2-3.5,2.6c1.7,0.8,2.5,1.7,2.5,2.2c0,0.6-0.8,1.4-2.3,2.1      c-2.1,1-5.4,1.9-9.7,1.9c-6,0-6-1.2-6-4s0-4,6-4v-4c-8.3,0-10,3-10,8s1.7,8,10,8c5.3,0,10.6-1.2,13.6-3.6      c1.5-1.2,2.4-2.6,2.4-4.4C27,19.7,26.6,17.8,24.1,16.1z" fill="#171C1F"/></g></g><g><g><path d="M23,42.4c0-0.5-0.8-1.4-2.5-2.2c-0.3,0.6-0.4,1.3-0.4,2c0,0.9,0.2,1.6,0.6,2.3C22.2,43.8,23,43,23,42.4z      " fill="#FFFFFF"/></g><g><path d="M24.8,37.6c-0.2,0-0.5,0-0.7,0.1c2.5,1.7,3,3.7,3,4.8c0,1.8-0.9,3.2-2.4,4.4h0.1c2.6,0,4.6-2.1,4.6-4.6      S27.3,37.6,24.8,37.6z" fill="#FFFFFF"/></g><g><path d="M24.1,37.6c-1.6,0.2-2.8,1.2-3.5,2.6c1.7,0.8,2.5,1.7,2.5,2.2c0,0.6-0.8,1.4-2.3,2.1      c-2.1,1-5.4,1.9-9.7,1.9c-6,0-6-1.2-6-4s0-4,6-4v-4c-8.3,0-10,3-10,8s1.7,8,10,8c5.3,0,10.6-1.2,13.6-3.6      c1.5-1.2,2.4-2.6,2.4-4.4C27,41.3,26.6,39.4,24.1,37.6z" fill="#171C1F"/></g></g><g><g><path d="M23,64c0-0.5-0.8-1.4-2.5-2.2c-0.3,0.6-0.4,1.3-0.4,2c0,0.9,0.2,1.6,0.6,2.3C22.2,65.4,23,64.6,23,64z" fill="#FFFFFF"/></g><g><path d="M24.8,59.1c-0.2,0-0.5,0-0.7,0.1c2.5,1.7,3,3.7,3,4.8c0,1.8-0.9,3.2-2.4,4.4h0.1c2.6,0,4.6-2.1,4.6-4.6      C29.4,61.2,27.3,59.1,24.8,59.1z" fill="#FFFFFF"/></g><g><path d="M24.1,59.2c-1.6,0.2-2.8,1.2-3.5,2.6c1.7,0.8,2.5,1.7,2.5,2.2c0,0.6-0.8,1.4-2.3,2.1      c-2.1,1-5.4,1.9-9.7,1.9c-6,0-6-1.2-6-4c0-2.7,0-4,6-4v-4c-8.3,0-10,3-10,8s1.7,8,10,8c5.3,0,10.6-1.2,13.6-3.6      c1.5-1.2,2.4-2.6,2.4-4.4C27,62.9,26.6,60.9,24.1,59.2z" fill="#171C1F"/></g></g><g><g><path d="M23,85.6c0-0.5-0.8-1.4-2.5-2.2c-0.3,0.6-0.4,1.3-0.4,2c0,0.9,0.2,1.6,0.6,2.3      C22.2,86.9,23,86.2,23,85.6z" fill="#FFFFFF"/></g><g><path d="M24.8,80.7c-0.2,0-0.5,0-0.7,0.1c2.5,1.7,3,3.7,3,4.8c0,1.8-0.9,3.2-2.4,4.4h0.1c2.6,0,4.6-2.1,4.6-4.6      S27.3,80.7,24.8,80.7z" fill="#FFFFFF"/></g><g><path d="M24.1,80.8c-1.6,0.2-2.8,1.2-3.5,2.6c1.7,0.8,2.5,1.7,2.5,2.2c0,0.6-0.8,1.4-2.3,2.1      c-2.1,1-5.4,1.9-9.7,1.9c-6,0-6-1.2-6-4s0-4,6-4v-4c-8.3,0-10,3-10,8s1.7,8,10,8c5.3,0,10.6-1.2,13.6-3.6      c1.5-1.2,2.4-2.6,2.4-4.4C27,84.4,26.6,82.5,24.1,80.8z" fill="#171C1F"/></g></g><g><g><path d="M23,107.1c0-0.5-0.8-1.4-2.5-2.2c-0.3,0.6-0.4,1.3-0.4,2c0,0.9,0.2,1.6,0.6,2.3      C22.2,108.5,23,107.7,23,107.1z" fill="#FFFFFF"/></g><g><path d="M24.8,102.3c-0.2,0-0.5,0-0.7,0.1c2.5,1.7,3,3.7,3,4.8c0,1.8-0.9,3.2-2.4,4.4h0.1c2.6,0,4.6-2.1,4.6-4.6      S27.3,102.3,24.8,102.3z" fill="#FFFFFF"/></g><g><path d="M24.1,102.3c-1.6,0.2-2.8,1.2-3.5,2.6c1.7,0.8,2.5,1.7,2.5,2.2c0,0.6-0.8,1.4-2.3,2.1      c-2.1,1-5.4,1.9-9.7,1.9c-6,0-6-1.2-6-4s0-4,6-4v-4c-8.3,0-10,3-10,8s1.7,8,10,8c5.3,0,10.6-1.2,13.6-3.6      c1.5-1.2,2.4-2.6,2.4-4.4C27,106,26.6,104.1,24.1,102.3z" fill="#171C1F"/></g></g></g><g><rect fill="#171C1F" height="123" width="2" x="33.3" y="3"/></g></g></svg>