<?xml version="1.0" encoding="UTF-8"?>
<svg width="24px" height="24px" viewBox="0 0 24 24" version="1.1" xmlns="http://www.w3.org/2000/svg" xmlns:xlink="http://www.w3.org/1999/xlink">
    <!-- Generator: Sketch 61.2 (89653) - https://sketch.com -->
    <title>icon-activity</title>
    <desc>Created with Sketch.</desc>
    <g id="Page-1" stroke="none" stroke-width="1" fill="none" fill-rule="evenodd">
        <g id="icon-activity" transform="translate(0.000000, 1.000000)" fill="#FFFFFF" fill-rule="nonzero">
            <path d="M21,3 L22.5,3 C23.0522847,3 23.5,3.44771525 23.5,4 L23.5,6 C23.5,6.55228475 23.0522847,7 22.5,7 C23.0522847,7 23.5,7.44771525 23.5,8 L23.5,10 C23.5,10.5522847 23.0522847,11 22.5,11 L21,11 L22.5,11.0022912 C23.0522847,11.0022912 23.5,11.4500065 23.5,12.0022912 L23.5,14.0022912 C23.5,14.5545759 23.0522847,15.0022912 22.5,15.0022912 L21,15.0022912 L21,20.7180574 C21,21.1638168 20.9535872,21.3254599 20.8664336,21.4884229 C20.7792801,21.6513858 20.6513858,21.7792801 20.4884229,21.8664336 C20.3254599,21.9535872 20.1638168,22 19.7180574,22 L1.2819426,22 C0.83618323,22 0.674540111,21.9535872 0.511577148,21.8664336 C0.348614185,21.7792801 0.220719898,21.6513858 0.133566352,21.4884229 C0.0464128056,21.3254599 0,21.1638168 0,20.7180574 L0,1.2819426 C0,0.83618323 0.0464128056,0.67454011 0.133566352,0.51157715 C0.220719898,0.34861419 0.348614185,0.2207199 0.511577148,0.13356635 C0.674540111,0.04641281 0.83618323,0 1.2819426,0 L19.7180574,0 C20.1638168,0 20.3254599,0.04641281 20.4884229,0.13356635 C20.6513858,0.2207199 20.7792801,0.34861419 20.8664336,0.51157715 C20.9535872,0.67454011 21,0.83618323 21,1.2819426 L21,3 Z M21,4 L21,6 L22.5,6 L22.5,4 L21,4 Z M21,8 L21,10 L22.5,10 L22.5,8 L21,8 Z M21,14 L22.5,14 L22.5,12 L21,12 L21,14 Z M5.5,1.5 L5.5,20.5 L19.5,20.5 L19.5,1.5 L5.5,1.5 Z M4,20.5 L4,1.5 L1.5,1.5 L1.5,20.5 L4,20.5 Z M8.5,5 L16,5 C16.2761424,5 16.5,5.22385763 16.5,5.5 C16.5,5.77614237 16.2761424,6 16,6 L8.5,6 C8.22385763,6 8,5.77614237 8,5.5 C8,5.22385763 8.22385763,5 8.5,5 Z M8.5,8 L16,8 C16.2761424,8 16.5,8.22385763 16.5,8.5 C16.5,8.77614237 16.2761424,9 16,9 L8.5,9 C8.22385763,9 8,8.77614237 8,8.5 C8,8.22385763 8.22385763,8 8.5,8 Z M8.5,11 L16,11 C16.2761424,11 16.5,11.2238576 16.5,11.5 C16.5,11.7761424 16.2761424,12 16,12 L8.5,12 C8.22385763,12 8,11.7761424 8,11.5 C8,11.2238576 8.22385763,11 8.5,11 Z" id="Combined-Shape"></path>
        </g>
    </g>
</svg>