<?xml version="1.0" encoding="UTF-8"?>
<svg width="24px" height="24px" viewBox="0 0 24 24" version="1.1" xmlns="http://www.w3.org/2000/svg" xmlns:xlink="http://www.w3.org/1999/xlink">
    <!-- Generator: Sketch 52.6 (67491) - http://www.bohemiancoding.com/sketch -->
    <title>activity-bar</title>
    <desc>Created with Sketch.</desc>
    <g id="Page-1" stroke="none" stroke-width="1" fill="none" fill-rule="evenodd">
        <path d="M21,4 L22.5,4 C23.0522847,4 23.5,4.44771525 23.5,5 L23.5,7 C23.5,7.55228475 23.0522847,8 22.5,8 C23.0522847,8 23.5,8.44771525 23.5,9 L23.5,11 C23.5,11.5522847 23.0522847,12 22.5,12 L21,12 L21,13 L22.5,13 C23.0522847,13 23.5,13.4477153 23.5,14 L23.5,16 C23.5,16.5522847 23.0522847,17 22.5,17 L21,17 L21,21.7180574 C21,22.1638168 20.9535872,22.3254599 20.8664336,22.4884229 C20.7792801,22.6513858 20.6513858,22.7792801 20.4884229,22.8664336 C20.3254599,22.9535872 20.1638168,23 19.7180574,23 L1.2819426,23 C0.83618323,23 0.674540111,22.9535872 0.511577148,22.8664336 C0.348614185,22.7792801 0.220719898,22.6513858 0.133566352,22.4884229 C0.0464128056,22.3254599 2.00617683e-17,22.1638168 -3.45280103e-17,21.7180574 L3.45280103e-17,2.2819426 C-2.00617683e-17,1.83618323 0.0464128056,1.67454011 0.133566352,1.51157715 C0.220719898,1.34861419 0.348614185,1.2207199 0.511577148,1.13356635 C0.674540111,1.04641281 0.83618323,1 1.2819426,1 L19.7180574,1 C20.1638168,1 20.3254599,1.04641281 20.4884229,1.13356635 C20.6513858,1.2207199 20.7792801,1.34861419 20.8664336,1.51157715 C20.9535872,1.67454011 21,1.83618323 21,2.2819426 L21,4 Z M21,5 L21,7 L22.5,7 L22.5,5 L21,5 Z M21,9 L21,11 L22.5,11 L22.5,9 L21,9 Z M21,16 L22.5,16 L22.5,14 L21,14 L21,16 Z M5.5,2.5 L5.5,21.5 L19.5,21.5 L19.5,2.5 L5.5,2.5 Z M4,21.5 L4,2.5 L1.5,2.5 L1.5,21.5 L4,21.5 Z M8.5,6 L16,6 C16.2761424,6 16.5,6.22385763 16.5,6.5 C16.5,6.77614237 16.2761424,7 16,7 L8.5,7 C8.22385763,7 8,6.77614237 8,6.5 C8,6.22385763 8.22385763,6 8.5,6 Z M8.5,9 L16,9 C16.2761424,9 16.5,9.22385763 16.5,9.5 C16.5,9.77614237 16.2761424,10 16,10 L8.5,10 C8.22385763,10 8,9.77614237 8,9.5 C8,9.22385763 8.22385763,9 8.5,9 Z M8.5,12 L16,12 C16.2761424,12 16.5,12.2238576 16.5,12.5 C16.5,12.7761424 16.2761424,13 16,13 L8.5,13 C8.22385763,13 8,12.7761424 8,12.5 C8,12.2238576 8.22385763,12 8.5,12 Z" id="Combined-Shape" fill="#FFFFFF" fill-rule="nonzero"></path>
    </g>
</svg>