<?xml version="1.0" ?>
<!DOCTYPE svg  PUBLIC '-//W3C//DTD SVG 1.1//EN'  'http://www.w3.org/Graphics/SVG/1.1/DTD/svg11.dtd'>
<svg style="enable-background:new 0 0 24 24;" version="1.1" viewBox="0 0 24 24" xml:space="preserve" xmlns="http://www.w3.org/2000/svg" xmlns:xlink="http://www.w3.org/1999/xlink">
    <g fill="#CCCCCC">
        <rect height="1" width="7" x="9.5" y="9.5"/>
        <rect height="7" width="1" x="12.5" y="6.5"/>
        <path d="M22,19.5h-1V2.502C21,1.674,20.326,1,19.497,1H2.5V0h16.997C20.877,0,22,1.123,22,2.502V19.5z"/>
        <path d="M20.5,24L6.275,21.99C5.001,21.876,4,20.803,4,19.5v-15h1v15c0,0.722,0.513,1.326,1.193,1.469l0.192,0.027   C7.229,21.049,8,20.366,8,19.5L8.5,19h15l0.5,0.5v1.033C24,22.256,22.798,24,20.5,24z M8.271,21.263l12.299,1.742   C22.227,23,23,21.761,23,20.533V20H8.95C8.851,20.487,8.609,20.923,8.271,21.263z"/>
        <path d="M4.5,5h-4L0,4.5v-2C0,1.122,1.122,0,2.5,0S5,1.122,5,2.5v2L4.5,5z M1,4h3V2.5C4,1.673,3.327,1,2.5,1S1,1.673,1,2.5V4z"/>
    </g>
</svg>