<?xml version="1.0" ?>
<svg viewBox="0 0 128 128" xmlns="http://www.w3.org/2000/svg">
    <path fill="#9e9e9e" d="M64,112.2A48.3,48.3,0,0,0,74.76,111l11.78,10.78a61.91,61.91,0,0,0,16.21-9.37L99.3,96.8a48.13,48.13,0,0,0,10.78-18.63l15.22-4.81a62.58,62.58,0,0,0,0-18.71l-15.22-4.81A48.13,48.13,0,0,0,99.3,31.2l3.45-15.59A61.91,61.91,0,0,0,86.54,6.24L74.76,17a48,48,0,0,0-21.52,0L41.46,6.24a61.91,61.91,0,0,0-16.21,9.37L28.7,31.2A48.13,48.13,0,0,0,17.92,49.83L2.7,54.64a62.57,62.57,0,0,0,0,18.71l15.22,4.81A48.13,48.13,0,0,0,28.7,96.8l-3.45,15.59a61.91,61.91,0,0,0,16.21,9.37L53.24,111A48.3,48.3,0,0,0,64,112.2ZM42,64A22,22,0,1,1,64,86,22,22,0,0,1,42,64Z"/>
    <path fill="#404040" d="M86.54,123.76a2,2,0,0,1-1.35-.52l-11-10.08a50.2,50.2,0,0,1-20.34,0l-11,10.08a2,2,0,0,1-2.08.39A63.83,63.83,0,0,1,24,113.94a2,2,0,0,1-.7-2l3.22-14.57A50.48,50.48,0,0,1,16.33,79.76L2.1,75.26A2,2,0,0,1,.73,73.66a64.57,64.57,0,0,1,0-19.31A2,2,0,0,1,2.1,52.74l14.23-4.5A50.5,50.5,0,0,1,26.52,30.62L23.3,16a2,2,0,0,1,.7-2A63.83,63.83,0,0,1,40.73,4.38a2,2,0,0,1,2.08.39l11,10.08a50.2,50.2,0,0,1,20.34,0l11-10.08a2,2,0,0,1,2.08-.39A63.83,63.83,0,0,1,104,14.06a2,2,0,0,1,.7,2l-3.22,14.57a50.48,50.48,0,0,1,10.19,17.62l14.23,4.5a2,2,0,0,1,1.38,1.61,64.58,64.58,0,0,1,0,19.31,2,2,0,0,1-1.37,1.61l-14.23,4.5a50.49,50.49,0,0,1-10.19,17.62L104.7,112a2,2,0,0,1-.7,2,63.83,63.83,0,0,1-16.73,9.67A2,2,0,0,1,86.54,123.76ZM27.48,111.59A59.83,59.83,0,0,0,41,119.43l10.85-9.93a2,2,0,0,1,1.79-.47,46.26,46.26,0,0,0,20.63,0,2,2,0,0,1,1.8.47L87,119.43a59.83,59.83,0,0,0,13.56-7.84L97.35,97.23a2,2,0,0,1,.49-1.79,46.4,46.4,0,0,0,10.33-17.86,2,2,0,0,1,1.31-1.32l14-4.43a60.56,60.56,0,0,0,0-15.66l-14-4.43a2,2,0,0,1-1.31-1.32A46.4,46.4,0,0,0,97.84,32.56a2,2,0,0,1-.49-1.79l3.17-14.36A59.83,59.83,0,0,0,87,8.57L76.11,18.5a2,2,0,0,1-1.8.47,46.26,46.26,0,0,0-20.63,0,2,2,0,0,1-1.79-.47L41,8.57a59.83,59.83,0,0,0-13.56,7.84l3.17,14.36a2,2,0,0,1-.49,1.79A46.41,46.41,0,0,0,19.84,50.42a2,2,0,0,1-1.31,1.32l-14,4.43a60.56,60.56,0,0,0,0,15.66l14,4.43a2,2,0,0,1,1.31,1.32A46.42,46.42,0,0,0,30.16,95.44a2,2,0,0,1,.49,1.79ZM64,88A24,24,0,1,1,88,64,24,24,0,0,1,64,88ZM64,44A20,20,0,1,0,84,64,20,20,0,0,0,64,44Z"/>
</svg>