<?xml version="1.0" encoding="UTF-8"?>
<svg width="16px" height="16px" viewBox="0 0 16 16" version="1.1" xmlns="http://www.w3.org/2000/svg" xmlns:xlink="http://www.w3.org/1999/xlink">
    <title>drawio</title>
    <g id="Page-1" stroke="none" stroke-width="1" fill="none" fill-rule="evenodd">
        <g id="Group-10" transform="translate(2.000000, 4.000000)" fill="#B8B6B6">
            <polygon id="Rectangle" transform="translate(6.806626, 5.246338) rotate(-28.000000) translate(-6.806626, -5.246338) " points="6.3066265 2.74633789 7.3066265 2.74633789 7.3066265 7.74633789 6.3066265 7.74633789"></polygon>
            <polygon id="Rectangle" transform="translate(3.056626, 5.500000) scale(-1, 1) rotate(-28.000000) translate(-3.056626, -5.500000) " points="2.5566265 3 3.5566265 3 3.5566265 8 2.5566265 8"></polygon>
            <path d="M9,6 C9.55228475,6 10,6.44771525 10,7 L10,9 C10,9.55228475 9.55228475,10 9,10 L7,10 C6.44771525,10 6,9.55228475 6,9 L6,7 C6,6.44771525 6.44771525,6 7,6 L9,6 Z M3.1,6 C3.65228475,6 4.1,6.44771525 4.1,7 L4.1,9 C4.1,9.55228475 3.65228475,10 3.1,10 L1.1,10 C0.54771525,10 0.1,9.55228475 0.1,9 L0.1,7 C0.1,6.44771525 0.54771525,6 1.1,6 L3.1,6 Z M6,0 C6.55228475,-1.01453063e-16 7,0.44771525 7,1 L7,3 C7,3.55228475 6.55228475,4 6,4 L4,4 C3.44771525,4 3,3.55228475 3,3 L3,1 C3,0.44771525 3.44771525,1.01453063e-16 4,0 L6,0 Z" id="Combined-Shape"></path>
        </g>
    </g>
</svg>