<?xml version="1.0" ?><!DOCTYPE svg  PUBLIC '-//W3C//DTD SVG 1.1//EN'  'http://www.w3.org/Graphics/SVG/1.1/DTD/svg11.dtd'><svg height="512px" style="enable-background:new 0 0 512 512;" version="1.1" viewBox="0 0 512 512" width="512px" xml:space="preserve" xmlns="http://www.w3.org/2000/svg" xmlns:xlink="http://www.w3.org/1999/xlink"><g id="_x33_90_x2C__Follow_x2C__New_x2C__User"><g id="XMLID_4195_" fill="#CCCCCC"><g id="XMLID_4196_"><path d="M243.405,260.136c-57.256,0-103.838-46.582-103.838-103.839c0-57.256,46.582-103.838,103.838-103.838     c57.257,0,103.839,46.582,103.839,103.838C347.244,213.554,300.662,260.136,243.405,260.136z M243.405,72.459     c-46.229,0-83.838,37.609-83.838,83.838s37.609,83.838,83.838,83.838s83.839-37.61,83.839-83.838S289.634,72.459,243.405,72.459z     "/></g><g id="XMLID_4197_"><path d="M442.831,459.541c-0.004,0.001-0.012,0-0.02,0H44c-5.523,0-10-4.478-10-10c0-115.467,93.938-209.406,209.405-209.406     c44.801,0,87.541,13.959,123.6,40.368c2.373,1.737,3.861,4.432,4.067,7.366s-0.89,5.811-2.996,7.863     c-10.328,10.064-16.017,23.535-16.017,37.931c0,29.208,23.762,52.971,52.97,52.971c8.467,0,16.574-1.952,24.094-5.803     c2.623-1.342,5.703-1.46,8.421-0.322s4.795,3.417,5.678,6.228c6.299,20.056,9.523,40.964,9.589,62.151     c0.014,0.216,0.021,0.434,0.021,0.653C452.831,455.063,448.354,459.541,442.831,459.541z M54.261,439.541h378.291     c-0.641-12.293-2.463-24.442-5.445-36.311c-7.093,2.262-14.48,3.403-22.077,3.403c-40.235,0-72.97-32.734-72.97-72.971     c0-15.788,4.962-30.767,14.16-43.211c-30.626-19.868-65.947-30.316-102.814-30.316C142.319,260.136,59.476,339.73,54.261,439.541     z"/></g><g id="XMLID_4198_"><path d="M405.029,406.634c-40.235,0-72.97-32.734-72.97-72.971c0-19.836,7.834-38.394,22.058-52.255     c13.711-13.358,31.791-20.715,50.912-20.715c40.236,0,72.971,32.734,72.971,72.97c0,27.517-15.235,52.411-39.762,64.971     C427.869,403.942,416.696,406.634,405.029,406.634z M405.029,280.693c-13.877,0-27.001,5.341-36.954,15.039     c-10.328,10.064-16.016,23.535-16.016,37.931c0,29.208,23.762,52.971,52.97,52.971c8.468,0,16.574-1.952,24.094-5.803     c17.812-9.12,28.877-27.194,28.877-47.168C458,304.455,434.237,280.693,405.029,280.693z"/></g><g id="XMLID_4199_"><path d="M405.029,364.653c-5.522,0-10-4.478-10-10v-41.98c0-5.522,4.478-10,10-10s10,4.478,10,10v41.98     C415.029,360.176,410.552,364.653,405.029,364.653z"/></g><g><path d="M426.02,343.663H384.04c-5.522,0-10-4.478-10-10s4.478-10,10-10h41.979c5.522,0,10,4.478,10,10     S431.542,343.663,426.02,343.663z"/></g></g></g><g id="Layer_1"/></svg>