<?xml version="1.0" encoding="UTF-8"?>
<svg width="16px" height="16px" viewBox="0 0 16 16" version="1.1" xmlns="http://www.w3.org/2000/svg" xmlns:xlink="http://www.w3.org/1999/xlink">
    <!-- Generator: Sketch 61.2 (89653) - https://sketch.com -->
    <title>gist-secret</title>
    <desc>Created with Sketch.</desc>
    <g id="Page-1" stroke="none" stroke-width="1" fill="none" fill-rule="evenodd">
        <path d="M12.5,9.5 C11.4650146,9.5 10.6195335,10.345481 10.6195335,11.3804665 L10.6195335,11.9198251 C10.2769679,11.9198251 10,12.196793 10,12.5393586 L10,14.9956268 C10,15.3381924 10.2769679,15.6151603 10.6195335,15.6151603 L14.3804665,15.6151603 C14.7230321,15.6151603 15,15.3381924 15,14.9956268 L15,12.5393586 C15,12.196793 14.7230321,11.9198251 14.3804665,11.9198251 L14.3804665,11.3804665 C14.3804665,10.345481 13.5349854,9.5 12.5,9.5 Z M13.7244898,11.9198251 L11.2755102,11.9198251 L11.2755102,11.3804665 C11.2755102,10.7099125 11.8221574,10.1559767 12.5,10.1559767 C13.1778426,10.1559767 13.7244898,10.7099125 13.7244898,11.3804665 L13.7244898,11.9198251 Z" id="Shape" fill="#78E762" fill-rule="nonzero"></path>
        <path d="M8.69332406,5 L8.03148069,5.66184337 L10.6759121,8.30627474 L8.03148069,10.9509736 L8.69332406,11.6128169 L12,8.30627474 L8.69332406,5 Z M5.30667594,5.00013373 L2,8.30667594 L5.30667594,11.6130844 L5.96851931,10.951241 L3.32408794,8.30667594 L5.96851931,5.66211084 L5.30667594,5.00013373 Z" id="Shape" fill="#C7C7C7" fill-rule="nonzero"></path>
    </g>
</svg>