<?xml version="1.0" encoding="UTF-8"?>
<svg width="16px" height="16px" viewBox="0 0 16 16" version="1.1" xmlns="http://www.w3.org/2000/svg" xmlns:xlink="http://www.w3.org/1999/xlink">
    <!-- Generator: Sketch 61.2 (89653) - https://sketch.com -->
    <title>jupyter</title>
    <desc>Created with Sketch.</desc>
    <g id="Page-1" stroke="none" stroke-width="1" fill="none" fill-rule="evenodd">
        <g id="Group-4" transform="translate(3.500000, 4.000000)">
            <path d="M6.6058782,6.57981532 C5.78160605,7.40065819 4.79210537,8.2816692 3.81538652,9.00992174 C4.19167112,9.12028193 4.58853135,9.18107356 5.00035567,9.18107356 C7.33007797,9.18107356 9.21742426,7.30027407 9.21742426,4.98083958 C9.21742426,4.56995052 9.15538562,4.17464905 9.04564894,3.79961146 C8.37725276,4.69215728 7.54238105,5.64705349 6.6058782,6.57981532 Z" id="Path" fill="#676666"></path>
            <path d="M5.41186824,6.82765812 C5.65597002,6.6013262 5.9013188,6.36782399 6.14729109,6.12247521 C6.38671658,5.88429672 6.613672,5.64705349 6.83657464,5.40949851 C6.87928466,5.36460623 6.92105942,5.3194022 6.96314593,5.27419816 C7.18355456,5.03601968 7.39554588,4.79939995 7.59631414,4.56589774 C7.60286093,4.55872745 7.60847246,4.5512454 7.61501925,4.5440751 C7.82451656,4.30059683 8.02123204,4.06054784 8.20734795,3.82548687 C8.21451825,3.81644606 8.2226238,3.80678175 8.22979409,3.79742919 C8.42027453,3.55644494 8.59579088,3.32138397 8.75883715,3.0934933 C8.76008416,3.09224629 8.76133116,3.09037578 8.76257817,3.08912877 C8.76257817,3.08912877 8.76257817,3.08912877 8.76257817,3.08850526 C9.7848128,1.65569332 10.2505702,0.515928199 9.86586831,0.13340856 C9.48116641,-0.249734583 8.33516625,0.21508757 6.8933135,1.2366987 C6.32405444,0.949575157 5.68340419,0.78029385 5.00035567,0.78029385 C2.67063338,0.78029385 0.782975337,2.66109335 0.782975337,4.98083958 C0.782975337,5.66108233 0.953503652,6.29830331 1.24218595,6.86600361 C0.216210297,8.30162132 -0.250794119,9.44325695 0.133907783,9.8270236 C0.701608079,10.3928534 2.9228407,9.11654091 5.31210762,6.92024844 C5.34484158,6.88969675 5.37788728,6.85883331 5.41186824,6.82765812 Z M8.65003572,1.34581188 C8.80154716,1.49669982 8.6787169,1.89823633 8.3516891,2.44972553 C8.11974566,2.14514387 7.84758621,1.87423143 7.54238105,1.64228798 C8.09574076,1.3171307 8.49883602,1.19492394 8.65003572,1.34581188 Z M1.35067563,8.61524378 C1.19916419,8.46497934 1.32199445,8.06406634 1.64902225,7.51257714 C1.8815892,7.81653529 2.15312514,8.08682423 2.46020081,8.31814417 C1.90528235,8.64392496 1.50218708,8.76644347 1.35067563,8.61524378 Z" id="Shape" fill="#C7C7C7" fill-rule="nonzero"></path>
        </g>
    </g>
</svg>