<?xml version="1.0" encoding="UTF-8"?>
<svg width="16px" height="16px" viewBox="0 0 16 16" version="1.1" xmlns="http://www.w3.org/2000/svg" xmlns:xlink="http://www.w3.org/1999/xlink">
    <!-- Generator: Sketch 61.2 (89653) - https://sketch.com -->
    <title>jupyter-secret</title>
    <desc>Created with Sketch.</desc>
    <g id="Page-1" stroke="none" stroke-width="1" fill="none" fill-rule="evenodd">
        <path d="M9.1058782,10.5798153 C8.28160605,11.4006582 7.29210537,12.2816692 6.31538652,13.0099217 C6.69167112,13.1202819 7.08853135,13.1810736 7.50035567,13.1810736 C9.83007797,13.1810736 11.7174243,11.3002741 11.7174243,8.98083958 C11.7174243,8.56995052 11.6553856,8.17464905 11.5456489,7.79961146 C10.8772528,8.69215728 10.0423811,9.64705349 9.1058782,10.5798153 Z" id="Path" fill="#676666"></path>
        <path d="M7.91186824,10.8276581 C8.15597002,10.6013262 8.4013188,10.367824 8.64729109,10.1224752 C8.88671658,9.88429672 9.113672,9.64705349 9.33657464,9.40949851 C9.37928466,9.36460623 9.42105942,9.3194022 9.46314593,9.27419816 C9.68355456,9.03601968 9.89554588,8.79939995 10.0963141,8.56589774 C10.1028609,8.55872745 10.1084725,8.5512454 10.1150193,8.5440751 C10.3245166,8.30059683 10.521232,8.06054784 10.707348,7.82548687 C10.7145182,7.81644606 10.7226238,7.80678175 10.7297941,7.79742919 C10.9202745,7.55644494 11.0957909,7.32138397 11.2588371,7.0934933 C11.2600842,7.09224629 11.2613312,7.09037578 11.2625782,7.08912877 C11.2625782,7.08912877 11.2625782,7.08912877 11.2625782,7.08850526 C12.2848128,5.65569332 12.7505702,4.5159282 12.3658683,4.13340856 C11.9811664,3.75026542 10.8351663,4.21508757 9.3933135,5.2366987 C8.82405444,4.94957516 8.18340419,4.78029385 7.50035567,4.78029385 C5.17063338,4.78029385 3.28297534,6.66109335 3.28297534,8.98083958 C3.28297534,9.66108233 3.45350365,10.2983033 3.74218595,10.8660036 C2.7162103,12.3016213 2.24920588,13.443257 2.63390778,13.8270236 C3.20160808,14.3928534 5.4228407,13.1165409 7.81210762,10.9202484 C7.84484158,10.8896968 7.87788728,10.8588333 7.91186824,10.8276581 Z M11.1500357,5.34581188 C11.3015472,5.49669982 11.1787169,5.89823633 10.8516891,6.44972553 C10.6197457,6.14514387 10.3475862,5.87423143 10.0423811,5.64228798 C10.5957408,5.3171307 10.998836,5.19492394 11.1500357,5.34581188 Z M3.85067563,12.6152438 C3.69916419,12.4649793 3.82199445,12.0640663 4.14902225,11.5125771 C4.3815892,11.8165353 4.65312514,12.0868242 4.96020081,12.3181442 C4.40528235,12.643925 4.00218708,12.7664435 3.85067563,12.6152438 Z" id="Shape" fill="#C7C7C7" fill-rule="nonzero"></path>
        <path d="M13.5,9.5 C12.4650146,9.5 11.6195335,10.345481 11.6195335,11.3804665 L11.6195335,11.9198251 C11.2769679,11.9198251 11,12.196793 11,12.5393586 L11,14.9956268 C11,15.3381924 11.2769679,15.6151603 11.6195335,15.6151603 L15.3804665,15.6151603 C15.7230321,15.6151603 16,15.3381924 16,14.9956268 L16,12.5393586 C16,12.196793 15.7230321,11.9198251 15.3804665,11.9198251 L15.3804665,11.3804665 C15.3804665,10.345481 14.5349854,9.5 13.5,9.5 Z M14.7244898,11.9198251 L12.2755102,11.9198251 L12.2755102,11.3804665 C12.2755102,10.7099125 12.8221574,10.1559767 13.5,10.1559767 C14.1778426,10.1559767 14.7244898,10.7099125 14.7244898,11.3804665 L14.7244898,11.9198251 Z" id="Shape" fill="#78E762" fill-rule="nonzero"></path>
    </g>
</svg>