<?xml version="1.0" encoding="UTF-8"?>
<svg width="16px" height="16px" viewBox="0 0 16 16" version="1.1" xmlns="http://www.w3.org/2000/svg" xmlns:xlink="http://www.w3.org/1999/xlink">
    <!-- Generator: Sketch 61.2 (89653) - https://sketch.com -->
    <title>pencil-gray</title>
    <desc>Created with Sketch.</desc>
    <g id="Page-1" stroke="none" stroke-width="1" fill="none" fill-rule="evenodd">
        <g id="pencil-gray" transform="translate(1.000000, 2.000000)">
            <path d="M1.65483847,7.984 L4.01483847,10.344 L4.00161158,10.3581965 L1.31468166,10.9855632 C1.18022686,11.0169568 1.04578014,10.9334092 1.01438652,10.7989544 C1.0056558,10.7615619 1.00565579,10.7226608 1.01438649,10.6852682 L1.64181641,7.99805975 L1.65483847,7.984 Z M5.99100493,3.56922235 L8.42973318,6.00758299 L4.72883847,9.643 L2.35583847,7.27 L5.99100493,3.56922235 Z M7.24169397,2.31933294 C7.6678388,1.89355569 8.35796071,1.89355569 8.78410554,2.31933294 L8.78410554,2.31933294 L9.68039138,3.21561041 C10.1065362,3.64138766 10.1065362,4.33223034 9.68039138,4.75800759 L9.68039138,4.75800759 L8.94409166,5.49430044 L6.50539425,3.05562579 Z" id="Combined-Shape" fill="#B8B6B6" fill-rule="evenodd"></path>
            <path d="M10.5,7.5 C9.46501458,7.5 8.61953353,8.34548105 8.61953353,9.38046647 L8.61953353,9.91982507 C8.27696793,9.91982507 8,10.196793 8,10.5393586 L8,12.9956268 C8,13.3381924 8.27696793,13.6151603 8.61953353,13.6151603 L12.3804665,13.6151603 C12.7230321,13.6151603 13,13.3381924 13,12.9956268 L13,10.5393586 C13,10.196793 12.7230321,9.91982507 12.3804665,9.91982507 L12.3804665,9.38046647 C12.3804665,8.34548105 11.5349854,7.5 10.5,7.5 Z M11.7244898,9.91982507 L9.2755102,9.91982507 L9.2755102,9.38046647 C9.2755102,8.70991254 9.82215743,8.15597668 10.5,8.15597668 C11.1778426,8.15597668 11.7244898,8.70991254 11.7244898,9.38046647 L11.7244898,9.91982507 Z" id="Shape" fill="#78E762" fill-rule="nonzero"></path>
        </g>
    </g>
</svg>