<?xml version="1.0" encoding="UTF-8"?>
<svg width="16px" height="16px" viewBox="0 0 16 16" version="1.1" xmlns="http://www.w3.org/2000/svg" xmlns:xlink="http://www.w3.org/1999/xlink">
    <!-- Generator: Sketch 62 (91390) - https://sketch.com -->
    <title>playground-template-secret</title>
    <desc>Created with Sketch.</desc>
    <g id="Page-1" stroke="none" stroke-width="1" fill="none" fill-rule="evenodd">
        <path d="M12.3,2 C13.4045695,2 14.3,2.8954305 14.3,4 L14.3013377,8.78941578 C13.6538541,8.41456281 12.9019839,8.2 12.1,8.2 C9.6699471,8.2 7.7,10.1699471 7.7,12.6 L7.7,12.6 L7.7,16 L2.3,16 C1.1954305,16 0.3,15.1045695 0.3,14 L0.3,4 C0.3,2.8954305 1.1954305,2 2.3,2 L12.3,2 Z M4.18592529,9.7 L1.8,13.7352173 L6.596875,13.7352173 L4.18592529,9.7 Z M4.2,3.7 C3.0954305,3.7 2.2,4.5954305 2.2,5.7 C2.2,6.8045695 3.0954305,7.7 4.2,7.7 C5.3045695,7.7 6.2,6.8045695 6.2,5.7 C6.2,4.5954305 5.3045695,3.7 4.2,3.7 Z M12,3.9 L8.4,3.9 L8.4,7.5 L12,7.5 L12,3.9 Z" id="Combined-Shape" fill="#868686"></path>
        <path d="M12,9.8 C10.9650146,9.8 10.1195335,10.645481 10.1195335,11.6804665 L10.1195335,12.2198251 C9.77696793,12.2198251 9.5,12.496793 9.5,12.8393586 L9.5,15.2956268 C9.5,15.6381924 9.77696793,15.9151603 10.1195335,15.9151603 L13.8804665,15.9151603 C14.2230321,15.9151603 14.5,15.6381924 14.5,15.2956268 L14.5,12.8393586 C14.5,12.496793 14.2230321,12.2198251 13.8804665,12.2198251 L13.8804665,11.6804665 C13.8804665,10.645481 13.0349854,9.8 12,9.8 Z M13.2244898,12.2198251 L10.7755102,12.2198251 L10.7755102,11.6804665 C10.7755102,11.0099125 11.3221574,10.4559767 12,10.4559767 C12.6778426,10.4559767 13.2244898,11.0099125 13.2244898,11.6804665 L13.2244898,12.2198251 Z" id="Shape" fill="#78E762" fill-rule="nonzero"></path>
    </g>
</svg>