<?xml version="1.0" encoding="UTF-8"?>
<svg width="16px" height="16px" viewBox="0 0 16 16" version="1.1" xmlns="http://www.w3.org/2000/svg" xmlns:xlink="http://www.w3.org/1999/xlink">
    <!-- Generator: Sketch 62 (91390) - https://sketch.com -->
    <title>playground-template</title>
    <desc>Created with Sketch.</desc>
    <g id="Page-1" stroke="none" stroke-width="1" fill="none" fill-rule="evenodd">
        <path d="M12.3,2 C13.4045695,2 14.3,2.8954305 14.3,4 L14.3,14 C14.3,15.1045695 13.4045695,16 12.3,16 L2.3,16 C1.1954305,16 0.3,15.1045695 0.3,14 L0.3,4 C0.3,2.8954305 1.1954305,2 2.3,2 L12.3,2 Z M10.1949375,9.20010038 C10.1474254,9.20209403 10.1061787,9.2334641 10.0915621,9.27872227 L9.55633846,10.9375013 L7.81385457,10.9340581 C7.76454533,10.9339685 7.72080471,10.9656927 7.70556871,11.0125956 C7.69033272,11.0594986 7.70707833,11.1108766 7.74702476,11.139789 L9.15895627,12.1615202 L8.61682921,13.8185833 C8.60151169,13.8654536 8.61816021,13.9168555 8.65804656,13.945841 C8.69793291,13.9748264 8.75195691,13.9747822 8.79179578,13.9457315 L10.1997159,12.9182617 L11.6082213,13.9457485 C11.6480631,13.9747913 11.7020842,13.9748281 11.7419655,13.9458397 C11.7818469,13.9168512 11.7984902,13.8654506 11.7831708,13.8185833 L11.2410437,12.1615202 L12.6529752,11.139789 C12.6929217,11.1108766 12.7096673,11.0594986 12.6944313,11.0125956 C12.6791953,10.9656927 12.6354547,10.9339685 12.5861454,10.9340581 L10.8436218,10.9375013 L10.3078186,9.27868477 C10.2921107,9.23010584 10.2459417,9.19796434 10.1949375,9.20010038 Z M4.18592529,9.7 L1.8,13.7352173 L6.596875,13.7352173 L4.18592529,9.7 Z M4.2,3.7 C3.0954305,3.7 2.2,4.5954305 2.2,5.7 C2.2,6.8045695 3.0954305,7.7 4.2,7.7 C5.3045695,7.7 6.2,6.8045695 6.2,5.7 C6.2,4.5954305 5.3045695,3.7 4.2,3.7 Z M12,3.9 L8.4,3.9 L8.4,7.5 L12,7.5 L12,3.9 Z" id="Combined-Shape" fill="#868686"></path>
    </g>
</svg>