<?xml version="1.0" encoding="UTF-8"?>
<svg width="16px" height="16px" viewBox="0 0 16 16" version="1.1" xmlns="http://www.w3.org/2000/svg" xmlns:xlink="http://www.w3.org/1999/xlink">
    <!-- Generator: Sketch 61.2 (89653) - https://sketch.com -->
    <title>Group 6</title>
    <desc>Created with Sketch.</desc>
    <g id="Page-1" stroke="none" stroke-width="1" fill="none" fill-rule="evenodd">
        <g id="Group-6" transform="translate(1.000000, 0.000000)" fill="#CCCCCC" fill-rule="nonzero">
            <path d="M3.49489199,3 C3.90910555,3 4.24489199,3.33578644 4.24489199,3.75 L4.244,10.534 L5.51824544,9.28583653 C5.81793323,8.99204621 6.29783191,8.99280841 6.59658497,9.28754922 C6.88897187,9.57600936 6.89215513,10.0468789 6.60369498,10.3392658 L6.59490065,10.3480323 L6.59490065,10.3480323 L4.11155912,12.7825049 C3.94601729,12.944789 3.72548866,13.017198 3.51087811,12.9998284 L3.49489199,13 L3.49489199,13 C3.45368196,13 3.41324823,12.9966763 3.37384422,12.9902824 C3.13941051,13.0314149 2.88934204,12.9618314 2.70641572,12.7825049 L0.223074195,10.3480323 C-0.0702275257,10.0605024 -0.0749064923,9.58964527 0.21262343,9.29634355 C0.215521054,9.29338776 0.218443304,9.29045621 0.221389875,9.28754922 C0.52014293,8.99280841 1.00004161,8.99204621 1.2997294,9.28583653 L2.744,10.701 L2.74489199,3.75 C2.74489199,3.33578644 3.08067842,3 3.49489199,3 Z" id="Combined-Shape"></path>
            <g id="Group-5" transform="translate(9.000000, 0.800000)">
                <g id="Group-10" transform="translate(0.000000, 0.500000)">
                    <g id="Group-13">
                        <path d="M2.10717703,6.10392344 C2.51291866,6.10392344 2.83062201,6.05416268 3.06028708,5.95464115 C3.2937799,5.85894737 3.46602871,5.70966507 3.57703349,5.50679426 L3.6,5.50679426 L3.6,6.03502392 L4.8,6.03502392 L4.8,1.96421053 C4.7923445,1.2369378 4.5645933,0.724019139 4.11674641,0.425454545 C3.66889952,0.134545455 3.06985646,-0.00708133971 2.31961722,0.000574162679 C1.43157895,-0.0147368421 0.759808612,0.276172249 0.30430622,0.873301435 L1.24593301,1.59100478 C1.3492823,1.41875598 1.49090909,1.29626794 1.6708134,1.22354067 C1.8430622,1.16229665 2.0784689,1.13167464 2.37703349,1.13167464 C3.2,1.11636364 3.6076555,1.37090909 3.6,1.895311 L3.6,2.52114833 L1.94066986,2.52114833 C1.30526316,2.52880383 0.822966507,2.70105263 0.493779904,3.03789474 C0.164593301,3.36708134 9.1038288e-14,3.78239234 9.1038288e-14,4.28382775 C9.1038288e-14,4.80822967 0.189473684,5.23885167 0.568421053,5.57569378 C0.928229665,5.92019139 1.44114833,6.09626794 2.10717703,6.10392344 Z M2.25645933,4.97856459 C1.85837321,4.97856459 1.57320574,4.90009569 1.40095694,4.74315789 C1.22105263,4.6015311 1.13110048,4.4292823 1.13110048,4.22641148 C1.12344498,3.76325359 1.46794258,3.52401914 2.1645933,3.50870813 L3.6,3.50870813 L3.6,3.93933014 C3.6,4.38717703 3.5062201,4.67425837 3.31866029,4.80057416 C3.11196172,4.92688995 2.75789474,4.9862201 2.25645933,4.97856459 Z" id="a"></path>
                        <polygon id="z" points="5 13.5 5 12.3992293 1.7751938 12.3992293 5 8.62755299 5 7.7 0.373643411 7.7 0.373643411 8.72813102 3.4248062 8.72813102 0.2 12.572447 0.2 13.5"></polygon>
                    </g>
                </g>
            </g>
        </g>
    </g>
</svg>