<?xml version="1.0" encoding="UTF-8"?>
<svg width="17px" height="17px" viewBox="0 0 17 17" version="1.1" xmlns="http://www.w3.org/2000/svg" xmlns:xlink="http://www.w3.org/1999/xlink">
    <!-- Generator: Sketch 61.2 (89653) - https://sketch.com -->
    <title>Group 7</title>
    <desc>Created with Sketch.</desc>
    <g id="Page-1" stroke="none" stroke-width="1" fill="none" fill-rule="evenodd">
        <g id="Group-7" transform="translate(0.000000, 2.000000)" fill="#CCCCCC">
            <path d="M10.5,0 C14.0898509,0 17,2.91014913 17,6.5 C17,10.0898509 14.0898509,13 10.5,13 C9.68360821,13 8.90236945,12.849492 8.18251737,12.5747095 L9.24915233,11.0835794 C9.64769126,11.1920847 10.0670822,11.25 10.5,11.25 C13.1233526,11.25 15.25,9.12335256 15.25,6.5 C15.25,3.87664744 13.1233526,1.75 10.5,1.75 C9.38280085,1.75 8.35568545,2.13569443 7.54454464,2.78119249 L6.76661193,1.17844381 C7.8230554,0.43591725 9.11062074,0 10.5,0 Z" id="Combined-Shape"></path>
            <path d="M3.49489199,2 C3.90910555,2 4.24489199,2.33578644 4.24489199,2.75 L4.244,9.534 L5.51824544,8.28583653 C5.81793323,7.99204621 6.29783191,7.99280841 6.59658497,8.28754922 C6.88897187,8.57600936 6.89215513,9.04687893 6.60369498,9.33926583 L6.59490065,9.34803227 L6.59490065,9.34803227 L4.11155912,11.7825049 C3.94601729,11.944789 3.72548866,12.017198 3.51087811,11.9998284 L3.49489199,12 L3.49489199,12 C3.45368196,12 3.41324823,11.9966763 3.37384422,11.9902824 C3.13941051,12.0314149 2.88934204,11.9618314 2.70641572,11.7825049 L0.223074195,9.34803227 C-0.0702275257,9.06050235 -0.0749064923,8.58964527 0.21262343,8.29634355 C0.215521054,8.29338776 0.218443304,8.29045621 0.221389875,8.28754922 C0.52014293,7.99280841 1.00004161,7.99204621 1.2997294,8.28583653 L2.744,9.701 L2.74489199,2.75 C2.74489199,2.33578644 3.08067842,2 3.49489199,2 Z" id="Combined-Shape" fill-rule="nonzero"></path>
        </g>
        <path d="M10,5.4 C10.4418278,5.4 10.8,5.7581722 10.8,6.2 L10.8,8.45 L12.2753116,9.48314122 C12.6372357,9.73656323 12.7251941,10.2353999 12.471772,10.597324 C12.21835,10.9592481 11.7195134,11.0472065 11.3575893,10.7937845 L9.63736997,9.58927397 C9.43042819,9.44437178 9.31305538,9.219235 9.29785372,8.98533414 C9.23581984,8.87108047 9.2,8.73972332 9.2,8.6 L9.2,6.2 C9.2,5.7581722 9.5581722,5.4 10,5.4 Z" id="Combined-Shape" fill="#CCCCCC"></path>
    </g>
</svg>