<?xml version="1.0" encoding="UTF-8"?>
<svg width="16px" height="16px" viewBox="0 0 16 16" version="1.1" xmlns="http://www.w3.org/2000/svg" xmlns:xlink="http://www.w3.org/1999/xlink">
    <!-- Generator: Sketch 62 (91390) - https://sketch.com -->
    <title>hat</title>
    <desc>Created with Sketch.</desc>
    <g id="Page-1" stroke="none" stroke-width="1" fill="none" fill-rule="evenodd">
        <g id="Group-8" transform="translate(1.000000, 4.000000)" fill-rule="nonzero">
            <path d="M9.70134605,7.67693015 C9.70208355,7.68332185 8.2650407,9.21339501 6.00074926,9.21339501 C3.73645781,9.21339501 2.29690568,8.02879791 2.3,7.67693015 C2.30009989,7.67264041 2.30009989,6.83484857 2.3,5.16355464 C2.30654261,5.10517382 2.34053341,5.05340617 2.39152595,5.02424903 C2.44251848,4.99509189 2.50437352,4.99205563 2.55797649,5.01607852 L5.65697101,6.40524311 C5.87571173,6.50313874 6.12581304,6.50313874 6.34455377,6.40524311 L9.44341697,5.01610479 C9.49701993,4.9920819 9.55887497,4.99511816 9.6098675,5.0242753 C9.66086004,5.05343243 9.69485084,5.10520008 9.70134605,5.1635809 L9.70134605,7.67693015 Z" id="Path" fill="#B8B6B6"></path>
            <path d="M9.6098675,5.0242753 C9.66086004,5.05343243 9.69485084,5.10520008 9.70134605,5.1635809 L9.70134605,6.32589286 L9.70134605,6.32589286 L6.34377825,7.93187944 C6.12503752,8.02977507 5.87493621,8.02977507 5.65619549,7.93187944 L2.3,6.32589286 L2.3,5.16355464 L2.3,5.16355464 C2.30654261,5.10517382 2.34053341,5.05340617 2.39152595,5.02424903 C2.44251848,4.99509189 2.50437352,4.99205563 2.55797649,5.01607852 L5.65697101,6.40524311 C5.87571173,6.50313874 6.12581304,6.50313874 6.34455377,6.40524311 L9.44341697,5.01610479 C9.49701993,4.9920819 9.55887497,4.99511816 9.6098675,5.0242753 Z" id="Combined-Shape" fill="#818181"></path>
            <path d="M6.34380451,0.0734367871 C6.12506808,-0.024478929 5.87495819,-0.024478929 5.65622175,0.0734367871 L0.248326473,2.49766571 C0.0972330744,2.56540136 0,2.71554806 0,2.88112987 C0,3.04671167 0.0972330744,3.19685837 0.248326473,3.26459403 L5.65622175,5.68882295 C5.87496248,5.78671858 6.12506379,5.78671858 6.34380451,5.68882295 L11.2040701,3.54630796 L11.2040701,5.00289951 C11.0740867,5.07782026 10.8112667,5.23908754 10.8112399,5.38911681 L10.8112399,7.54536688 C10.8112399,7.86308275 11.0687995,8.12064236 11.3865154,8.12064236 C11.7042313,8.12064236 11.9617909,7.86308275 11.9617909,7.54536688 L11.9617909,5.38911681 L11.9617909,5.38911681 C11.9617641,5.23908754 11.6168785,5.10048202 11.4868952,5.02556127 L11.4868952,3.39012097 C11.6379886,3.32238531 12,3.04671167 12,2.88112987 C12,2.71554806 11.9027669,2.56540136 11.7516735,2.49766571 L6.34380451,0.0734367871 Z" id="Shape" fill="#B8B6B6" transform="translate(6.000000, 4.060321) scale(-1, 1) translate(-6.000000, -4.060321) "></path>
        </g>
    </g>
</svg>