<?xml version="1.0" ?><!DOCTYPE svg  PUBLIC '-//W3C//DTD SVG 1.1//EN'  'http://www.w3.org/Graphics/SVG/1.1/DTD/svg11.dtd'><svg enable-background="new 0 0 26 26" id="Слой_1" version="1.1" viewBox="0 0 26 26" xml:space="preserve" xmlns="http://www.w3.org/2000/svg" xmlns:xlink="http://www.w3.org/1999/xlink"><path d="M25,13c0-6.6166992-5.3828125-12-12-12S1,6.3833008,1,13c0,3.383606,1.413208,6.4386597,3.673645,8.6222534  c0.0529175,0.0689087,0.1156006,0.1247559,0.1889648,0.171814C7.0038452,23.7769165,9.8582764,25,13,25  s5.9961548-1.2230835,8.1373901-3.2059326c0.0733643-0.0470581,0.1360474-0.1029053,0.1889648-0.171814  C23.586792,19.4386597,25,16.383606,25,13z M13,2.5c5.7900391,0,10.5,4.7104492,10.5,10.5  c0,2.4549561-0.8532715,4.7108154-2.2702637,6.5008545c-0.6505127-2.0978394-2.5076294-3.7401123-5.0281372-4.4957886  c1.3735962-0.9940796,2.2720337-2.6046143,2.2720337-4.4244995c0-3.0141602-2.4550781-5.4663086-5.4736328-5.4663086  s-5.4736328,2.4521484-5.4736328,5.4663086c0,1.8198853,0.8984375,3.4304199,2.2720337,4.4244995  c-2.5205078,0.7556763-4.3776245,2.3979492-5.0281372,4.4957886C3.3532715,17.7108154,2.5,15.4549561,2.5,13  C2.5,7.2104492,7.2099609,2.5,13,2.5z M9.0263672,10.5805664c0-2.1870117,1.7822266-3.9663086,3.9736328-3.9663086  s3.9736328,1.7792969,3.9736328,3.9663086S15.1914063,14.546875,13,14.546875S9.0263672,12.7675781,9.0263672,10.5805664z   M6.0307617,20.8319702C6.2562256,18.0820313,9.1723633,16.046875,13,16.046875s6.7437744,2.0351563,6.9692383,4.7850952  C18.1130981,22.4855347,15.6757202,23.5,13,23.5S7.8869019,22.4855347,6.0307617,20.8319702z" fill="white"/></svg>